<svg xmlns="http://www.w3.org/2000/svg" xmlns:xlink="http://www.w3.org/1999/xlink" viewBox="0 0 182.6 154.79"><defs><style>.cls-1{isolation:isolate;}.cls-2,.cls-3{fill:url(#linear-gradient);}.cls-3,.cls-6,.cls-9{opacity:0.5;}.cls-3,.cls-5,.cls-6,.cls-9{mix-blend-mode:multiply;}.cls-4{fill:url(#linear-gradient-3);}.cls-5{fill:url(#linear-gradient-4);}.cls-6{fill:url(#linear-gradient-5);}.cls-7{fill:url(#linear-gradient-6);}.cls-8{fill:url(#linear-gradient-7);}.cls-9{fill:url(#linear-gradient-8);}.cls-10{fill:url(#linear-gradient-9);}.cls-11{fill:url(#linear-gradient-10);}.cls-12{fill:url(#linear-gradient-11);}.cls-13{fill:#fff;}.cls-14{fill:#442e19;}</style><linearGradient id="linear-gradient" x1="50.55" y1="48.68" x2="50.55" y2="87.35" gradientUnits="userSpaceOnUse"><stop offset="0" stop-color="#bd8b50"/><stop offset="1" stop-color="#b37a44"/></linearGradient><linearGradient id="linear-gradient-3" x1="120.87" y1="56.76" x2="120.87" y2="167.72" gradientUnits="userSpaceOnUse"><stop offset="0" stop-color="#edc98d"/><stop offset="1" stop-color="#e5ab71"/></linearGradient><linearGradient id="linear-gradient-4" x1="120.87" y1="56.76" x2="120.87" y2="167.72" xlink:href="#linear-gradient"/><linearGradient id="linear-gradient-5" x1="81.36" y1="83.52" x2="115.32" y2="125.09" xlink:href="#linear-gradient"/><linearGradient id="linear-gradient-6" x1="52.58" y1="67.98" x2="52.58" y2="154.17" xlink:href="#linear-gradient-3"/><linearGradient id="linear-gradient-7" x1="122.9" y1="64.9" x2="122.9" y2="137.45" xlink:href="#linear-gradient"/><linearGradient id="linear-gradient-8" x1="120.06" y1="75.29" x2="136.68" y2="95.65" xlink:href="#linear-gradient"/><linearGradient id="linear-gradient-9" x1="126.21" y1="71.98" x2="144.26" y2="94.08" xlink:href="#linear-gradient-3"/><linearGradient id="linear-gradient-10" x1="113.93" y1="2.13" x2="149.05" y2="57.48" xlink:href="#linear-gradient-3"/><linearGradient id="linear-gradient-11" x1="40.48" y1="43.45" x2="63.41" y2="91.26" xlink:href="#linear-gradient-3"/></defs><title>box_1</title><g class="cls-1"><g id="Layer_2" data-name="Layer 2"><g id="OBJECTS"><polygon class="cls-2" points="16.41 133.6 84.7 113.95 84.7 40.08 16.41 59.73 16.41 133.6"/><polygon class="cls-3" points="16.41 133.6 84.7 113.95 84.7 40.08 16.41 59.73 16.41 133.6"/><polygon class="cls-4" points="157.04 135.13 84.7 113.95 84.7 40.08 157.04 61.26 157.04 135.13"/><polygon class="cls-5" points="157.04 135.13 84.7 113.95 84.7 40.08 157.04 61.26 157.04 135.13"/><polygon class="cls-6" points="84.7 40.08 157.04 135.13 84.7 135.13 84.7 40.08"/><polygon class="cls-7" points="88.75 154.79 16.41 133.6 16.41 59.73 88.75 80.92 88.75 154.79"/><polygon class="cls-8" points="88.75 154.79 157.04 135.13 157.04 61.26 88.75 80.92 88.75 154.79"/><polygon class="cls-9" points="157.04 100.62 157.04 61.26 88.75 80.92 104.62 115.71 157.04 100.62"/><polygon class="cls-10" points="114.31 105.88 182.6 86.22 157.04 61.26 88.75 80.92 114.31 105.88"/><polygon class="cls-11" points="84.7 40.08 106.99 0 179.33 21.18 157.04 61.26 84.7 40.08"/><polygon class="cls-12" points="0 22.25 16.41 59.73 88.75 80.92 72.35 43.43 0 22.25"/><polygon class="cls-13" points="153.07 118.92 134.6 124.33 134.6 136.01 153.07 130.6 153.07 118.92"/><path class="cls-14" d="M139,132v-3.18a4.14,4.14,0,0,0,2.47-3.73l-2.47.72-.24.71.37-.11.42-.13-.2.39-.81,1.51.29-1.22-.41.12-.33.1.12-.35.29-.87-2.33.68c0,1.6,1.09,2.58,2.47,2.28v3.19c-.9.28-1.6.68-1.6.91l3.56-1C140.55,131.76,139.85,131.78,139,132Z"/><path class="cls-14" d="M148.46,125.69a1.89,1.89,0,0,0-2.47-1.91v-.13a.13.13,0,0,0-.18-.12.26.26,0,0,0-.18.23v.12a3.83,3.83,0,0,0-2.47,3.37l2.47-.73v3.1h0a.92.92,0,0,1-.63.82.46.46,0,0,1-.62-.31.13.13,0,0,0-.17-.09h0a.27.27,0,0,0-.17.27.72.72,0,0,0,1,.49,1.45,1.45,0,0,0,1-1.28h0v-3.1Z"/><polygon class="cls-14" points="149.42 125.65 149.42 125.25 151.75 124.57 151.75 124.98 149.42 125.65"/><polygon class="cls-14" points="149.42 126.25 149.42 125.84 151.75 125.16 151.75 125.57 149.42 126.25"/><polygon class="cls-14" points="149.42 126.84 149.42 126.43 151.75 125.75 151.75 126.16 149.42 126.84"/><polygon class="cls-14" points="149.42 127.43 149.42 127.02 151.75 126.35 151.75 126.75 149.42 127.43"/><polygon class="cls-14" points="149.42 128.02 149.42 127.61 151.75 126.94 151.75 127.34 149.42 128.02"/><polygon class="cls-14" points="149.42 128.61 149.42 128.2 151.75 127.53 151.75 127.93 149.42 128.61"/><polygon class="cls-14" points="149.42 129.2 149.42 128.79 151.75 128.12 151.75 128.52 149.42 129.2"/><polygon class="cls-14" points="149.42 129.79 149.42 129.38 151.75 128.71 151.75 129.12 149.42 129.79"/></g></g></g></svg>