<?xml version="1.0" encoding="utf-8"?>
<!-- Generator: Adobe Illustrator 22.1.0, SVG Export Plug-In . SVG Version: 6.00 Build 0)  -->
<svg version="1.1" id="Layer_1" xmlns="http://www.w3.org/2000/svg" xmlns:xlink="http://www.w3.org/1999/xlink" x="0px" y="0px"
	 viewBox="0 0 196 122.1" style="enable-background:new 0 0 196 122.1;" xml:space="preserve">
<style type="text/css">
	.st0{fill:#EAA54B;}
	.st1{fill:#F09819;}
	.st2{fill:url(#SVGID_1_);}
	.st3{fill:url(#SVGID_2_);}
	.st4{fill:#D6D6D6;}
</style>
<title>creditcard</title>
<path class="st0" d="M7.5,0h181c4.1,0,7.5,3.4,7.5,7.5v107.1c0,4.1-3.4,7.5-7.5,7.5H7.5c-4.1,0-7.5-3.4-7.5-7.5V7.5
	C0,3.4,3.4,0,7.5,0z"/>
<path class="st1" d="M188.5,0H50.7l72.6,122.1h65.3c4.1,0,7.5-3.4,7.5-7.5l0,0V7.5C196,3.4,192.6,0,188.5,0z"/>
<linearGradient id="SVGID_1_" gradientUnits="userSpaceOnUse" x1="31.775" y1="95.5" x2="31.775" y2="43.37" gradientTransform="matrix(1 0 0 -1 0 122)">
	<stop  offset="0" style="stop-color:#FFCA3F"/>
	<stop  offset="0.1" style="stop-color:#CA7C22"/>
	<stop  offset="0.19" style="stop-color:#FDDB7A"/>
	<stop  offset="0.42" style="stop-color:#FFAD45"/>
	<stop  offset="0.55" style="stop-color:#A95F0D"/>
	<stop  offset="0.66" style="stop-color:#FFAD45"/>
	<stop  offset="0.79" style="stop-color:#FFFF9B"/>
	<stop  offset="0.87" style="stop-color:#FFED7C"/>
	<stop  offset="1" style="stop-color:#FFCA3F"/>
</linearGradient>
<path class="st2" d="M22.5,32.1h18.6c2.1,0,3.7,1.7,3.7,3.7V49c0,2.1-1.7,3.7-3.7,3.7H22.5c-2.1,0-3.7-1.7-3.7-3.7V35.8
	C18.7,33.7,20.4,32.1,22.5,32.1z"/>
<linearGradient id="SVGID_2_" gradientUnits="userSpaceOnUse" x1="31.775" y1="108.13" x2="31.775" y2="42.87" gradientTransform="matrix(1 0 0 -1 0 122)">
	<stop  offset="0" style="stop-color:#FFCA3F"/>
	<stop  offset="0.1" style="stop-color:#CA7C22"/>
	<stop  offset="0.19" style="stop-color:#FDDB7A"/>
	<stop  offset="0.42" style="stop-color:#FFAD45"/>
	<stop  offset="0.55" style="stop-color:#A95F0D"/>
	<stop  offset="0.66" style="stop-color:#FFAD45"/>
	<stop  offset="0.79" style="stop-color:#FFFF9B"/>
	<stop  offset="0.87" style="stop-color:#FFED7C"/>
	<stop  offset="1" style="stop-color:#FFCA3F"/>
</linearGradient>
<path class="st3" d="M44.8,38.6v-0.5H40v-6h-0.5v6h-3.8c-0.5-1.6-2-2.8-3.7-3v-3h-0.5v3c-1.8,0-3.5,1.2-4,3H24v-6h-0.5v6h-4.8v0.5
	h4.8v6.8h-4.8v0.5h4.8v6.9H24v-6.9h3.4c0.4,1.9,2.1,3.3,4.1,3.3v3.6H32v-3.6c1.8-0.2,3.4-1.5,3.8-3.3h3.8v6.9H40v-6.9h4.8v-0.5H42
	v-6.8H44.8z M27.4,45.3H24v-6.8h3.4c0,0.3-0.1,0.5-0.1,0.8c0,1,0.4,2,1,2.7c-0.6,0.8-1,1.7-1,2.7C27.3,45,27.4,45.2,27.4,45.3z
	 M31.6,48.7c-2.1,0-3.8-1.7-3.8-3.8c0-1,0.4-1.9,1-2.6l0.1-0.2L28.8,42c-1.4-1.5-1.4-4,0.2-5.4c1.5-1.4,4-1.4,5.4,0.2
	c1.4,1.5,1.4,3.7,0,5.2l-0.2,0.2l0.2,0.2c1.4,1.5,1.3,3.9-0.2,5.4C33.5,48.3,32.6,48.7,31.6,48.7L31.6,48.7z M41.5,45.3h-5.6
	c0-0.2,0-0.3,0-0.5c0-1-0.4-2-1-2.7c0.6-0.8,1-1.7,1-2.7c0-0.3,0-0.5-0.1-0.8h5.7L41.5,45.3z"/>
<path class="st4" d="M19.8,67l-0.6-0.6l1.8-2h1.5v9.1h-1v-8c0-0.1,0-0.2,0-0.3l0,0L19.8,67z"/>
<path class="st4" d="M24.5,73.5v-1.4c0-0.1,0-0.2,0-0.3c0.1-0.1,0.1-0.2,0.2-0.2l4.3-3.9c0.1-0.1,0.2-0.2,0.2-0.3c0-0.1,0-0.3,0-0.4
	v-1.2c0-0.1,0-0.2,0-0.2c0,0-0.1-0.1-0.1-0.2c-0.1-0.1-0.1-0.1-0.2-0.1c-0.1,0-0.2,0-0.3,0h-2.3c-0.1,0-0.2,0-0.3,0
	c-0.1,0-0.1,0.1-0.2,0.1c-0.1,0-0.1,0.1-0.1,0.2c0,0.1,0,0.2,0,0.2v0.2h-1.1v-0.5c0-0.3,0.1-0.5,0.3-0.7l0.3-0.3
	c0.2-0.2,0.4-0.2,0.6-0.3h3.3c0.2,0,0.5,0.1,0.6,0.3l0.3,0.3c0.2,0.2,0.3,0.4,0.3,0.7v1.8c0,0.1,0,0.3,0,0.4c0,0.1-0.1,0.2-0.2,0.3
	L25.9,72c-0.1,0.1-0.2,0.2-0.2,0.3c0,0.1,0,0.2,0,0.3v0.1h4.8v0.9L24.5,73.5z"/>
<path class="st4" d="M37.6,68.9l0.5,0.4c0.1,0.1,0.2,0.1,0.2,0.2c0,0.1,0,0.3,0,0.4v2.4c0,0.1,0,0.2,0,0.4c-0.1,0.1-0.1,0.2-0.2,0.3
	l-0.2,0.2c-0.2,0.2-0.4,0.3-0.6,0.3h-3.7c-0.2,0-0.5-0.1-0.6-0.3L32.7,73c-0.2-0.2-0.3-0.4-0.3-0.7v-0.5h1.1v0.2c0,0.1,0,0.2,0,0.3
	c0,0.1,0.1,0.1,0.1,0.2c0.1,0,0.1,0.1,0.2,0.1c0.1,0,0.2,0,0.3,0h2.6c0.1,0,0.2,0,0.3,0c0.1,0,0.1-0.1,0.2-0.1
	c0.1-0.1,0.1-0.1,0.1-0.2c0-0.1,0-0.2,0-0.3v-2c0-0.2-0.1-0.4-0.2-0.5l-0.2-0.2c-0.1-0.1-0.2-0.1-0.3-0.2c-0.1,0-0.2,0-0.3,0h-2
	v-0.8h1.9c0.1,0,0.2,0,0.3,0c0.1-0.1,0.2-0.1,0.3-0.2l0.2-0.2c0.1-0.1,0.2-0.1,0.2-0.2c0-0.1,0-0.2,0-0.3v-1.6c0-0.1,0-0.2,0-0.2
	c0-0.1-0.1-0.1-0.1-0.2c-0.1,0-0.1-0.1-0.2-0.1c-0.1,0-0.2,0-0.3,0h-2.1c-0.1,0-0.2,0-0.3,0c-0.1,0-0.1,0.1-0.2,0.1
	c-0.1,0-0.1,0.1-0.1,0.2c0,0.1,0,0.2,0,0.2v0.2h-1.1v-0.5c0-0.3,0.1-0.5,0.3-0.7l0.3-0.3c0.2-0.2,0.4-0.3,0.6-0.3H37
	c0.2,0,0.5,0.1,0.6,0.3l0.3,0.3c0.2,0.2,0.3,0.4,0.3,0.7v2.1c0,0.1,0,0.2,0,0.3c-0.1,0.1-0.1,0.1-0.2,0.2l-0.4,0.3
	c-0.1,0.1-0.2,0.2-0.4,0.2v0.1C37.4,68.8,37.5,68.8,37.6,68.9z"/>
<path class="st4" d="M44.8,67.9h1.1v2.6h1.2v0.9h-1.2v2.1h-1.1v-2.1h-4.6v-1.1l4.5-6h1.2l-4.3,5.8c-0.1,0.1-0.1,0.2-0.2,0.2v0.1h3.5
	L44.8,67.9z"/>
<path class="st4" d="M60.9,67.5h2.9c0.2,0,0.5,0.1,0.6,0.3l0.3,0.3c0.2,0.2,0.3,0.4,0.3,0.7v3.6c0,0.3-0.1,0.5-0.3,0.7l-0.3,0.3
	c-0.2,0.2-0.4,0.2-0.6,0.3H60c-0.2,0-0.4-0.1-0.6-0.3L59,73c-0.2-0.2-0.3-0.4-0.3-0.7v-0.5h1.1v0.2c0,0.1,0,0.2,0,0.3
	c0,0.1,0.1,0.1,0.1,0.2c0.1,0,0.1,0.1,0.2,0.1c0.1,0,0.2,0,0.3,0h3h0.3c0.1,0,0.1-0.1,0.2-0.1c0.1,0,0.1-0.1,0.1-0.2
	c0-0.1,0-0.2,0-0.3V69c0-0.1,0-0.2,0-0.2c0-0.1-0.1-0.1-0.1-0.2c-0.1,0-0.1-0.1-0.2-0.1c-0.1,0-0.2,0-0.3,0h-2.5
	c-0.2,0-0.5,0.1-0.6,0.3c-0.2,0.1-0.3,0.3-0.3,0.5h-1.1v-4.8H65v0.9h-5v2.8l0,0c0-0.1,0.1-0.2,0.3-0.3
	C60.5,67.7,60.7,67.6,60.9,67.5z"/>
<path class="st4" d="M73.9,66.1h-1.1v-0.2c0-0.1,0-0.2,0-0.2c0-0.1-0.1-0.1-0.1-0.2c-0.1,0-0.1-0.1-0.2-0.1c-0.1,0-0.2,0-0.3,0h-3.2
	c-0.1,0-0.2,0-0.3,0c-0.1,0-0.1,0.1-0.2,0.1c-0.1,0-0.1,0.1-0.1,0.2c0,0.1,0,0.2,0,0.2v2.6l0,0l0.1-0.1c0.3-0.3,0.5-0.4,0.7-0.4h3.6
	c0.2,0,0.4,0.1,0.6,0.3l0.3,0.3c0.2,0.2,0.3,0.4,0.3,0.7v3.2c0,0.3-0.1,0.5-0.3,0.7l-0.3,0.3c-0.2,0.2-0.4,0.2-0.6,0.3h-4.2
	c-0.2,0-0.4-0.1-0.6-0.3L67.7,73c-0.2-0.2-0.3-0.4-0.3-0.7v-6.8c0-0.3,0.1-0.5,0.3-0.7l0.3-0.3c0.2-0.2,0.4-0.2,0.6-0.3h4.1
	c0.2,0,0.4,0.1,0.6,0.3l0.3,0.3c0.2,0.2,0.3,0.4,0.3,0.7L73.9,66.1z M72.9,72.1v-2.7c0-0.1,0-0.2,0-0.2c0-0.1-0.1-0.1-0.1-0.2
	c-0.1,0-0.1-0.1-0.2-0.1c-0.1,0-0.2,0-0.3,0h-2.9c-0.1,0-0.2,0-0.3,0c-0.1,0-0.2,0.1-0.3,0.2c-0.2,0.1-0.3,0.2-0.3,0.3v2.7
	c0,0.1,0,0.2,0,0.3c0,0,0.1,0.1,0.1,0.2c0.1,0,0.1,0.1,0.2,0.1c0.1,0,0.2,0,0.3,0h3.2c0.1,0,0.2,0,0.3,0c0.1,0,0.1-0.1,0.2-0.1
	c0.1-0.1,0.1-0.1,0.1-0.2C73,72.3,73,72.2,72.9,72.1L72.9,72.1z"/>
<path class="st4" d="M76.6,73.5l4.3-7.9c0-0.1,0.1-0.2,0.2-0.3h-5.6v-0.9h6.7v1l-4.3,8.1H76.6z"/>
<path class="st4" d="M84.3,69.5l0.6-0.5c0.1-0.1,0.2-0.2,0.4-0.2v-0.1c-0.1,0-0.3-0.1-0.4-0.2l-0.4-0.3c-0.1-0.1-0.2-0.3-0.2-0.4
	v-2.2c0-0.3,0.1-0.5,0.3-0.7l0.3-0.3c0.2-0.2,0.4-0.2,0.6-0.3h4c0.2,0,0.5,0.1,0.6,0.3l0.3,0.3c0.2,0.2,0.3,0.4,0.3,0.7v2.2
	c0,0.2-0.1,0.3-0.2,0.4l-0.4,0.3c-0.1,0.1-0.2,0.2-0.4,0.2v0.1c0.1,0,0.3,0.1,0.4,0.2l0.6,0.5c0.1,0.1,0.2,0.3,0.2,0.5v2.3
	c0,0.3-0.1,0.5-0.3,0.7c-0.1,0-0.2,0.1-0.3,0.3c-0.2,0.2-0.4,0.2-0.6,0.3h-4.3c-0.2,0-0.5-0.1-0.6-0.3c-0.1-0.1-0.2-0.2-0.3-0.3
	c-0.2-0.2-0.3-0.4-0.3-0.7V70C84.1,69.8,84.1,69.6,84.3,69.5z M88.8,69.4h-2.6c-0.1,0-0.2,0-0.3,0c-0.1,0-0.2,0.1-0.2,0.2l-0.3,0.2
	c-0.1,0.1-0.1,0.1-0.2,0.2c0,0.1,0,0.2,0,0.3v1.8c0,0.1,0,0.2,0,0.3c0,0.1,0.1,0.1,0.1,0.2c0.1,0,0.1,0.1,0.2,0.1c0.1,0,0.2,0,0.3,0
	h3.3h0.3c0.1,0,0.1-0.1,0.2-0.1c0.1,0,0.1-0.1,0.1-0.2c0-0.1,0-0.2,0-0.3v-1.8c0-0.1,0-0.2,0-0.3c-0.1-0.1-0.1-0.1-0.2-0.2l-0.3-0.2
	c-0.1-0.1-0.1-0.1-0.2-0.2C89,69.4,88.9,69.4,88.8,69.4z M89,65.4h-3c-0.1,0-0.2,0-0.3,0c-0.1,0-0.1,0.1-0.2,0.1
	c-0.1,0.1-0.1,0.1-0.1,0.2c0,0.1,0,0.2,0,0.2v1.7c0,0.1,0,0.2,0,0.3c0,0,0.1,0.1,0.2,0.2l0.3,0.3c0.1,0.1,0.1,0.1,0.2,0.1
	c0.1,0,0.2,0,0.3,0h2.2c0.1,0,0.2,0,0.3,0c0.1,0,0.1-0.1,0.2-0.1l0.3-0.3c0.1-0.1,0.2-0.2,0.2-0.2c0-0.1,0-0.2,0-0.3v-1.7
	c0-0.1,0-0.2,0-0.2c0,0-0.1-0.1-0.1-0.2c-0.1,0-0.1-0.1-0.2-0.1C89.2,65.3,89.1,65.3,89,65.4L89,65.4z"/>
<path class="st4" d="M103,71.8h1.1v0.2c0,0.1,0,0.2,0,0.3c0,0,0,0.1,0.1,0.2c0.1,0,0.1,0.1,0.2,0.1c0.1,0,0.2,0,0.3,0h3.1
	c0.1,0,0.2,0,0.3,0c0.1,0,0.1-0.1,0.2-0.1c0.1-0.1,0.1-0.1,0.1-0.2c0-0.1,0-0.2,0-0.3v-2.6l0,0l-0.1,0.1c-0.3,0.3-0.5,0.5-0.7,0.5
	h-3.5c-0.2,0-0.4-0.1-0.6-0.3l-0.3-0.3c-0.2-0.2-0.3-0.4-0.3-0.7v-3.2c0-0.3,0.1-0.5,0.3-0.7l0.3-0.3c0.2-0.2,0.4-0.3,0.6-0.3h4.2
	c0.2,0,0.5,0.1,0.6,0.3l0.3,0.3c0.2,0.2,0.3,0.4,0.3,0.7v6.8c0,0.3-0.1,0.5-0.3,0.7l-0.3,0.3c-0.2,0.2-0.4,0.2-0.6,0.3h-4.1
	c-0.2,0-0.4-0.1-0.6-0.3l-0.3-0.3c-0.2-0.2-0.3-0.4-0.3-0.7L103,71.8z M104,65.8v2.7c0,0.1,0,0.2,0,0.3c0,0.1,0.1,0.1,0.1,0.2
	c0.1,0,0.1,0.1,0.2,0.1c0.1,0,0.2,0,0.3,0h2.9c0.1,0,0.2,0,0.3,0c0.1,0,0.2-0.1,0.3-0.2c0.2-0.1,0.3-0.2,0.3-0.3v-2.7
	c0-0.1,0-0.2,0-0.2c0,0-0.1-0.1-0.1-0.2c-0.1-0.1-0.1-0.1-0.2-0.1c-0.1,0-0.2,0-0.3,0h-3.2c-0.1,0-0.2,0-0.3,0
	c-0.1,0-0.1,0.1-0.2,0.1c-0.1,0-0.1,0.1-0.1,0.2C104,65.7,103.9,65.8,104,65.8L104,65.8z"/>
<path class="st4" d="M113.1,64.4h5.2c0.2,0,0.5,0.1,0.6,0.3l0.3,0.3c0.2,0.2,0.3,0.4,0.3,0.7v6.8c0,0.3-0.1,0.5-0.3,0.7l-0.3,0.3
	c-0.2,0.2-0.4,0.2-0.6,0.3h-5.2c-0.2,0-0.4-0.1-0.6-0.3l-0.3-0.3c-0.2-0.2-0.3-0.4-0.3-0.7v-6.8c0-0.3,0.1-0.5,0.3-0.7l0.3-0.3
	C112.7,64.5,112.9,64.4,113.1,64.4z M118.4,72.1v-6.2c0-0.1,0-0.2,0-0.2c0-0.1-0.1-0.1-0.1-0.2c-0.1,0-0.1-0.1-0.2-0.1
	c-0.1,0-0.2,0-0.3,0h-4.2c-0.1,0-0.2,0-0.3,0c-0.1,0-0.1,0.1-0.2,0.1c-0.1,0-0.1,0.1-0.1,0.2c0,0.1,0,0.2,0,0.2v6.2
	c0,0.1,0,0.2,0,0.3c0,0,0,0.1,0.1,0.2c0.1,0,0.1,0.1,0.2,0.1c0.1,0,0.2,0,0.3,0h4.2h0.3c0.1,0,0.1-0.1,0.2-0.1
	c0.1,0,0.1-0.1,0.1-0.2C118.5,72.2,118.5,72.2,118.4,72.1z"/>
<path class="st4" d="M122.1,67l-0.6-0.6l1.8-2h1.5v9.1h-1v-8c0-0.1,0-0.2,0-0.3l0,0L122.1,67z"/>
<path class="st4" d="M126.7,73.5v-1.4c0-0.1,0-0.2,0-0.3c0.1-0.1,0.1-0.2,0.2-0.2l4.3-3.9c0.1-0.1,0.2-0.2,0.2-0.3
	c0-0.1,0-0.3,0-0.4v-1.2c0-0.1,0-0.2,0-0.2c0,0-0.1-0.1-0.1-0.2c-0.1,0-0.1-0.1-0.2-0.1c-0.1,0-0.2,0-0.3,0h-2.3c-0.1,0-0.2,0-0.3,0
	c-0.1,0-0.1,0.1-0.2,0.1c-0.1,0.1-0.1,0.1-0.1,0.2c0,0.1,0,0.2,0,0.2v0.2h-1.1v-0.5c0-0.3,0.1-0.5,0.3-0.7l0.3-0.3
	c0.2-0.2,0.4-0.2,0.6-0.3h3.3c0.2,0,0.5,0.1,0.6,0.3l0.3,0.3c0.2,0.2,0.3,0.4,0.3,0.7v1.8c0,0.1,0,0.3,0,0.4c0,0.1-0.1,0.2-0.2,0.3
	l-4.4,3.9c-0.1,0.1-0.2,0.2-0.2,0.3c0,0.1,0,0.2,0,0.3v0.1h4.8v0.9L126.7,73.5z"/>
<path class="st4" d="M149.6,68.9l0.5,0.4c0.1,0.1,0.2,0.1,0.2,0.2c0,0.1,0,0.3,0,0.4v2.4c0,0.1,0,0.2,0,0.4
	c-0.1,0.1-0.1,0.2-0.2,0.3l-0.2,0.2c-0.2,0.2-0.4,0.3-0.6,0.3h-3.7c-0.2,0-0.5-0.1-0.6-0.3l-0.3-0.3c-0.2-0.2-0.3-0.4-0.3-0.7v-0.5
	h1.1v0.2c0,0.1,0,0.2,0,0.3c0,0,0.1,0.1,0.1,0.2c0.1,0,0.1,0.1,0.2,0.1c0.1,0,0.2,0,0.3,0h2.6c0.1,0,0.2,0,0.3,0
	c0.1,0,0.1-0.1,0.2-0.1c0.1-0.1,0.1-0.1,0.1-0.2c0-0.1,0-0.2,0-0.3v-2c0-0.2-0.1-0.4-0.2-0.5l-0.2-0.2c-0.1-0.1-0.2-0.1-0.3-0.2
	c-0.1,0-0.2,0-0.3,0h-2.1v-0.8h1.9c0.1,0,0.2,0,0.3,0c0.1,0,0.2-0.1,0.3-0.2l0.2-0.2c0.1-0.1,0.2-0.1,0.2-0.2c0-0.1,0-0.2,0-0.3
	v-1.6c0-0.1,0-0.2,0-0.2c0-0.1-0.1-0.1-0.1-0.2c-0.1,0-0.1-0.1-0.2-0.1c-0.1,0-0.2,0-0.3,0h-2.1c-0.1,0-0.2,0-0.3,0
	c-0.1,0-0.1,0.1-0.2,0.1c-0.1,0.1-0.1,0.1-0.1,0.2c0,0.1,0,0.2,0,0.2v0.2h-1.1v-0.5c0-0.3,0.1-0.5,0.3-0.7l0.3-0.3
	c0.2-0.2,0.4-0.2,0.6-0.3h3.1c0.2,0,0.5,0.1,0.6,0.3l0.3,0.3c0.2,0.2,0.3,0.4,0.3,0.7v2.1c0,0.1,0,0.2,0,0.3
	c-0.1,0.1-0.1,0.1-0.2,0.2l-0.4,0.3c-0.1,0.1-0.2,0.2-0.4,0.2v0.1C149.4,68.8,149.5,68.8,149.6,68.9z"/>
<path class="st4" d="M156.8,67.9h1.1v2.6h1.2v0.9h-1.2v2.1h-1.1v-2.1h-4.6v-1.1l4.4-6h1.2l-4.3,5.8c-0.1,0.1-0.1,0.2-0.2,0.2v0.1
	h3.5L156.8,67.9z"/>
<path class="st4" d="M163.2,67.5h2.9c0.2,0,0.5,0.1,0.6,0.3l0.3,0.3c0.2,0.2,0.3,0.4,0.3,0.7v3.6c0,0.3-0.1,0.5-0.4,0.6l-0.3,0.3
	c-0.2,0.2-0.4,0.2-0.6,0.3h-3.9c-0.2,0-0.5-0.1-0.6-0.3l-0.3-0.3c-0.2-0.2-0.3-0.4-0.3-0.7v-0.5h1.1v0.2c0,0.1,0,0.2,0,0.3
	c0,0.1,0.1,0.1,0.1,0.2c0.1,0,0.1,0.1,0.2,0.1c0.1,0,0.2,0,0.3,0h2.9c0.1,0,0.2,0,0.3,0c0.1,0,0.1-0.1,0.2-0.1
	c0.1-0.1,0.1-0.1,0.1-0.2c0-0.1,0-0.2,0-0.3V69c0-0.1,0-0.2,0-0.2c0-0.1-0.1-0.1-0.1-0.2c-0.1,0-0.1-0.1-0.2-0.1c-0.1,0-0.2,0-0.3,0
	h-2.5c-0.2,0-0.5,0.1-0.6,0.3c-0.2,0.1-0.3,0.3-0.3,0.5H161v-4.8h6.1v0.9h-5v2.8h0.1c0-0.1,0.1-0.2,0.3-0.3
	C162.7,67.7,162.9,67.6,163.2,67.5z"/>
<path class="st4" d="M176.1,66.1H175v-0.2c0-0.1,0-0.2,0-0.2c0,0-0.1-0.1-0.1-0.2c-0.1-0.1-0.1-0.1-0.2-0.1c-0.1,0-0.2,0-0.3,0h-3.1
	c-0.1,0-0.2,0-0.3,0c-0.1,0-0.1,0.1-0.2,0.1c-0.1,0-0.1,0.1-0.1,0.2c0,0.1,0,0.2,0,0.2v2.6l0,0l0.1-0.1c0.3-0.3,0.5-0.4,0.7-0.4h3.6
	c0.2,0,0.4,0.1,0.6,0.3l0.3,0.3c0.2,0.2,0.3,0.4,0.3,0.7v3.2c0,0.2-0.1,0.5-0.2,0.6l-0.3,0.3c-0.2,0.2-0.4,0.2-0.6,0.3h-4.3
	c-0.2,0-0.4-0.1-0.6-0.3l-0.3-0.3c-0.2-0.2-0.3-0.4-0.3-0.7v-6.8c0-0.3,0.1-0.5,0.3-0.7l0.3-0.3c0.2-0.2,0.4-0.2,0.6-0.3h4.1
	c0.2,0,0.5,0.1,0.6,0.3l0.3,0.3c0.2,0.2,0.3,0.4,0.3,0.7V66.1z M175.1,72.1v-2.7c0-0.1,0-0.2,0-0.2c0-0.1-0.1-0.1-0.1-0.2
	c-0.1,0-0.1-0.1-0.2-0.1c-0.1,0-0.2,0-0.3,0h-2.9c-0.1,0-0.2,0-0.3,0c-0.1,0-0.2,0.1-0.3,0.1c-0.2,0.1-0.3,0.2-0.3,0.3V72
	c0,0.1,0,0.2,0,0.3c0,0,0.1,0.1,0.1,0.2c0.1,0,0.1,0.1,0.2,0.1c0.1,0,0.2,0,0.3,0h3.2c0.1,0,0.2,0,0.3,0c0.1,0,0.1-0.1,0.2-0.1
	c0.1-0.1,0.1-0.1,0.1-0.2C175.2,72.2,175.2,72.1,175.1,72.1L175.1,72.1z"/>
<path class="st4" d="M24.5,101.9L24.5,101.9c-0.1-0.2-0.1-0.3-0.1-0.5v-5.7h0.9v7.6h-0.9l-4-6.1l0,0c0.1,0.2,0.1,0.3,0.1,0.5v5.6
	h-0.9v-7.6h0.9L24.5,101.9z"/>
<path class="st4" d="M30.9,102.8L30.9,102.8c0,0.1-0.1,0.2-0.2,0.3c-0.1,0.1-0.2,0.1-0.3,0.1c-0.1,0-0.2,0-0.3,0h-1.9
	c-0.2,0-0.4-0.1-0.5-0.2l-0.3-0.2c-0.2-0.1-0.3-0.3-0.3-0.6V101c0-0.2,0.1-0.4,0.3-0.5l0.3-0.2c0.1-0.1,0.3-0.2,0.5-0.2h2.2l0.1,0.1
	c0.1,0,0.1,0.1,0.1,0.2l0,0v-1.3c0-0.1,0-0.1,0-0.2c0,0-0.1-0.1-0.1-0.1c0,0-0.1-0.1-0.1-0.1c-0.1,0-0.2,0-0.2,0h-1.7
	c-0.1,0-0.2,0-0.3,0c-0.1,0-0.2,0.1-0.3,0.2l-0.6-0.6l0.3-0.2c0.1-0.1,0.2-0.1,0.3-0.2c0.1,0,0.2,0,0.3,0h2.5c0.2,0,0.4,0.1,0.5,0.2
	l0.3,0.2c0.2,0.1,0.3,0.3,0.3,0.6v3.2c0,0.1,0,0.1,0,0.2c0,0,0.1,0.1,0.1,0.1c0.1,0,0.1,0.1,0.1,0.1c0,0,0,0.1,0,0.2v0.5h-0.4
	c-0.1,0-0.2,0-0.3,0c-0.1,0-0.1-0.1-0.2-0.1C31,103.1,30.9,103,30.9,102.8z M28.2,101.2v0.8c0,0.1,0,0.1,0,0.2
	c0,0.1,0.1,0.1,0.1,0.1c0,0,0.1,0.1,0.1,0.1c0.1,0,0.2,0,0.2,0H30h0.3c0.1,0,0.2-0.1,0.3-0.1c0.1,0,0.2-0.1,0.2-0.2
	c0-0.1,0-0.1,0-0.2v-0.7c0-0.1,0-0.1,0-0.2c0,0-0.1-0.1-0.1-0.1c0,0-0.1-0.1-0.1-0.1h-2.1c-0.1,0-0.1,0.1-0.1,0.1
	c-0.1,0-0.1,0.1-0.1,0.1C28.1,101.1,28.1,101.2,28.2,101.2z"/>
<path class="st4" d="M37.5,98.4L37.5,98.4c0-0.1,0.1-0.1,0.2-0.2l0.2-0.1l0.3-0.1h0.3h1.7c0.2,0,0.4,0.1,0.5,0.2l0.3,0.2
	c0.2,0.1,0.3,0.3,0.3,0.6v4.4h-0.9v-4.2c0-0.1,0-0.1,0-0.2c0-0.1-0.1-0.1-0.1-0.1c0,0-0.1-0.1-0.2-0.1c-0.1,0-0.2,0-0.2,0h-1.2h-0.3
	c-0.1,0-0.2,0.1-0.3,0.1c-0.2,0.1-0.2,0.2-0.3,0.3v4.2h-0.9v-4.2c0-0.1,0-0.1,0-0.2c0,0-0.1-0.1-0.1-0.1l-0.2-0.1
	c-0.1,0-0.2,0-0.2,0h-1.1H35c-0.1,0-0.2,0.1-0.3,0.1c-0.1,0-0.2,0.1-0.2,0.2c0,0.1,0,0.1,0,0.2v4.1h-0.9v-4.2c0-0.1,0-0.1,0-0.2
	c0,0-0.1-0.1-0.1-0.1c0,0-0.1-0.1-0.1-0.1c0-0.1,0-0.1,0-0.2v-0.5h0.4c0.1,0,0.2,0,0.3,0c0.1,0,0.1,0.1,0.2,0.1
	c0.1,0.1,0.2,0.2,0.2,0.3l0,0c0-0.1,0.1-0.2,0.2-0.3c0.1-0.1,0.2-0.1,0.3-0.1c0.1,0,0.2,0,0.3,0h1.6c0.2,0,0.4,0.1,0.5,0.2
	C37.4,98.2,37.4,98.3,37.5,98.4z"/>
<path class="st4" d="M46.6,102.3l0.7,0.6l-0.3,0.2c-0.1,0.1-0.2,0.1-0.3,0.2c-0.1,0-0.2,0-0.3,0h-2.9c-0.2,0-0.4-0.1-0.5-0.2
	l-0.3-0.2c-0.2-0.1-0.3-0.3-0.3-0.6v-3.4c0-0.2,0.1-0.4,0.3-0.6l0.3-0.2c0.1-0.1,0.3-0.2,0.5-0.2H46c0.2,0,0.4,0.1,0.5,0.2l0.3,0.2
	c0.2,0.1,0.3,0.3,0.3,0.6v2.2h-3.7v1c0,0.1,0,0.1,0,0.2c0,0.1,0.1,0.1,0.1,0.1c0,0,0.1,0.1,0.2,0.1c0.1,0,0.2,0,0.2,0H46
	c0.1,0,0.2,0,0.3,0C46.4,102.4,46.5,102.4,46.6,102.3z M46.2,100.3v-1.2c0-0.1,0-0.1,0-0.2c0,0-0.1-0.1-0.1-0.1c0,0-0.1-0.1-0.2-0.1
	c-0.1,0-0.2,0-0.2,0h-1.8c-0.1,0-0.2,0-0.2,0c-0.1,0-0.1,0-0.2,0.1c-0.1,0-0.1,0.1-0.1,0.1c0,0.1,0,0.1,0,0.2v1.3L46.2,100.3z"/>
<path class="st4" d="M55,99.8h-2.6c-0.2,0-0.4-0.1-0.5-0.2l-0.3-0.2c-0.1-0.1-0.2-0.3-0.2-0.4v-2.2c0-0.2,0.1-0.4,0.3-0.5l0.3-0.2
	c0.1-0.1,0.3-0.2,0.5-0.2h2.9c0.2,0,0.4,0.1,0.5,0.2l0.3,0.2c0.2,0.1,0.3,0.3,0.3,0.5v0.4h-0.9v-0.2c0-0.1,0-0.1,0-0.2
	c0,0,0-0.1-0.1-0.1c0,0-0.1-0.1-0.2-0.1c-0.1,0-0.2,0-0.2,0h-2.1c-0.1,0-0.2,0-0.2,0l-0.2,0.1c0,0-0.1,0.1-0.1,0.1
	c0,0.1,0,0.1,0,0.2v1.7c0,0.1,0,0.1,0,0.2c0,0,0.1,0.1,0.1,0.1c0,0,0.1,0.1,0.2,0.1h2.8c0.2,0,0.4,0.1,0.5,0.2l0.3,0.2
	c0.2,0.1,0.3,0.3,0.3,0.5v2.3c0,0.2-0.1,0.4-0.3,0.6l-0.3,0.2c-0.1,0.1-0.3,0.2-0.5,0.2h-3.1c-0.2,0-0.4-0.1-0.5-0.2l-0.3-0.2
	c-0.2-0.1-0.3-0.3-0.3-0.6v-0.4h0.9v0.2c0,0.1,0,0.1,0,0.2c0,0,0.1,0.1,0.1,0.1l0.2,0.1c0.1,0,0.2,0,0.2,0H55c0.1,0,0.2,0,0.2,0
	c0.1,0,0.1,0,0.2-0.1c0.1,0,0.1-0.1,0.1-0.1c0-0.1,0-0.1,0-0.2v-1.8c0-0.1,0-0.1,0-0.2c0-0.1-0.1-0.1-0.1-0.1c0,0-0.1-0.1-0.2-0.1
	C55.2,99.8,55.1,99.8,55,99.8z"/>
<path class="st4" d="M60.7,103.3H59c-0.2,0-0.4-0.1-0.5-0.2l-0.3-0.2c-0.2-0.1-0.3-0.3-0.3-0.6v-4.4h0.9v4.2c0,0.1,0,0.1,0,0.2
	c0,0.1,0.1,0.1,0.1,0.1c0,0,0.1,0.1,0.2,0.1c0.1,0,0.2,0,0.2,0h1.2h0.3c0.1,0,0.2-0.1,0.3-0.1c0.1,0,0.2-0.1,0.2-0.2
	c0-0.1,0-0.1,0-0.2v-4.1h0.9v4.2c0,0.1,0,0.1,0,0.2c0,0.1,0.1,0.1,0.1,0.1c0,0,0.1,0.1,0.1,0.1c0,0.1,0,0.1,0,0.2v0.5h-0.4
	c-0.1,0-0.2,0-0.3,0c-0.1,0-0.1-0.1-0.2-0.1c-0.1-0.1-0.2-0.2-0.2-0.3l0,0c0,0.1-0.1,0.2-0.2,0.3c-0.1,0.1-0.2,0.1-0.3,0.1
	L60.7,103.3z"/>
<path class="st4" d="M63.8,97.9h0.4c0.1,0,0.2,0,0.3,0c0.1,0,0.1,0.1,0.2,0.1c0.1,0.1,0.2,0.2,0.2,0.3l0,0c0-0.1,0.1-0.2,0.2-0.3
	c0.1-0.1,0.2-0.1,0.3-0.1c0.1,0,0.2,0,0.3,0h1c0.2,0,0.4,0.1,0.5,0.2l0.3,0.2l-0.7,0.6l-0.1-0.1l-0.2-0.1c-0.1,0-0.2,0-0.2,0h-0.5
	h-0.3c-0.1,0-0.2,0.1-0.3,0.1C65.1,98.8,65,98.9,65,99c0,0.1,0,0.1,0,0.2v4.1h-0.9v-4.3c0-0.1,0-0.1,0-0.2c0,0-0.1-0.1-0.1-0.1
	c0,0-0.1-0.1-0.1-0.1c0-0.1,0-0.1,0-0.2L63.8,97.9z"/>
<path class="st4" d="M68.3,97.9h0.4c0.1,0,0.2,0,0.3,0c0.1,0,0.1,0.1,0.2,0.1c0.1,0.1,0.2,0.2,0.2,0.3l0,0c0-0.1,0.1-0.2,0.2-0.3
	c0.1-0.1,0.2-0.1,0.3-0.1c0.1,0,0.2,0,0.3,0H72c0.2,0,0.4,0.1,0.5,0.2l0.3,0.2c0.2,0.1,0.3,0.3,0.3,0.6v4.4h-0.9v-4.2
	c0-0.1,0-0.1,0-0.2c0,0-0.1-0.1-0.1-0.1l-0.2-0.1c-0.1,0-0.2,0-0.2,0h-1.4H70c-0.1,0-0.2,0.1-0.3,0.1c-0.1,0-0.2,0.1-0.2,0.2
	c0,0.1,0,0.1,0,0.2v4.1h-0.9v-4.2c0-0.1,0-0.1,0-0.2c0-0.1-0.1-0.1-0.1-0.1c-0.1,0-0.1-0.1-0.1-0.1c0-0.1,0-0.1,0-0.2L68.3,97.9z"/>
<path class="st4" d="M78.2,102.8L78.2,102.8c0,0.1-0.1,0.2-0.2,0.3c-0.1,0.1-0.2,0.1-0.3,0.1h-0.3h-1.9c-0.2,0-0.4-0.1-0.5-0.2
	l-0.3-0.2c-0.2-0.1-0.3-0.3-0.3-0.6V101c0-0.2,0.1-0.4,0.3-0.5l0.3-0.2c0.1-0.1,0.3-0.2,0.5-0.2h2.2l0.1,0.1c0.1,0,0.1,0.1,0.1,0.2
	l0,0v-1.3c0-0.1,0-0.1,0-0.2c0-0.1-0.1-0.1-0.1-0.1c0,0-0.1-0.1-0.2-0.1c-0.1,0-0.2,0-0.2,0h-1.7c-0.2,0-0.4,0.1-0.5,0.2l-0.7-0.6
	l0.3-0.2c0.1-0.1,0.2-0.1,0.3-0.2c0.1,0,0.2,0,0.3,0h2.5c0.2,0,0.4,0.1,0.5,0.2l0.3,0.2c0.2,0.1,0.3,0.3,0.3,0.6v3.2
	c0,0.1,0,0.1,0,0.2c0,0,0.1,0.1,0.1,0.1c0.1,0,0.1,0.1,0.1,0.1c0,0.1,0,0.1,0,0.2v0.5h-0.4c-0.1,0-0.2,0-0.3,0
	c-0.1,0-0.1-0.1-0.2-0.1C78.3,103.1,78.2,103,78.2,102.8z M75.4,101.2v0.8c0,0.1,0,0.1,0,0.2c0,0,0,0.1,0.1,0.1c0,0,0.1,0.1,0.2,0.1
	c0.1,0,0.2,0,0.2,0h1.3h0.3c0.1,0,0.2-0.1,0.3-0.1c0.1,0,0.2-0.1,0.2-0.2c0-0.1,0-0.1,0-0.2v-0.7c0-0.1,0-0.1,0-0.2
	c0-0.1-0.1-0.1-0.1-0.1c0,0-0.1-0.1-0.2-0.1h-2c-0.1,0-0.1,0.1-0.2,0.1c-0.1,0-0.1,0.1-0.1,0.1C75.4,101.1,75.4,101.2,75.4,101.2z"
	/>
<path class="st4" d="M84.8,98.4L84.8,98.4c0-0.1,0.1-0.1,0.2-0.2l0.2-0.1c0.1-0.1,0.2-0.1,0.3-0.1c0.1,0,0.2,0,0.3,0h1.7
	c0.2,0,0.4,0.1,0.5,0.2l0.3,0.2c0.2,0.1,0.3,0.3,0.3,0.6v4.4h-0.9v-4.2c0-0.1,0-0.1,0-0.2c0,0-0.1-0.1-0.1-0.1l-0.2-0.1
	c-0.1,0-0.2,0-0.2,0h-1.2h-0.3c-0.1,0-0.2,0.1-0.3,0.1C85.1,98.9,85,99,85,99.1v4.2h-0.9v-4.2c0-0.1,0-0.1,0-0.2
	c0-0.1-0.1-0.1-0.1-0.1c0,0-0.1-0.1-0.2-0.1c-0.1,0-0.2,0-0.2,0h-1.1h-0.3L82,98.8c-0.1,0-0.2,0.1-0.2,0.2c0,0.1,0,0.1,0,0.2v4.1h-1
	v-4.2c0-0.1,0-0.1,0-0.2c0-0.1-0.1-0.1-0.1-0.1c0,0-0.1-0.1-0.1-0.1c0-0.1,0-0.1,0-0.2v-0.5h0.4c0.1,0,0.2,0,0.3,0
	c0.1,0,0.1,0.1,0.2,0.1c0.1,0.1,0.2,0.2,0.2,0.3l0,0c0-0.1,0.1-0.2,0.2-0.3c0.1-0.1,0.2-0.1,0.3-0.1h0.3H84
	C84.3,97.9,84.6,98.1,84.8,98.4L84.8,98.4z"/>
<path class="st4" d="M93.8,102.3l0.7,0.6l-0.3,0.2c-0.1,0.1-0.2,0.1-0.3,0.2c-0.1,0-0.2,0-0.3,0h-2.9c-0.2,0-0.4-0.1-0.5-0.2
	l-0.3-0.2c-0.2-0.1-0.3-0.3-0.3-0.6v-3.4c0-0.2,0.1-0.4,0.3-0.6l0.3-0.2c0.1-0.1,0.3-0.2,0.5-0.2h2.5c0.2,0,0.4,0.1,0.5,0.2l0.3,0.2
	c0.2,0.1,0.3,0.3,0.3,0.6v2.2h-3.7v1c0,0.1,0,0.1,0,0.2c0,0.1,0.1,0.1,0.1,0.1c0,0,0.1,0.1,0.2,0.1c0.1,0,0.2,0,0.2,0h2.1
	c0.1,0,0.2,0,0.3,0C93.7,102.4,93.8,102.4,93.8,102.3z M93.5,100.3v-1.2c0-0.1,0-0.1,0-0.2c0-0.1-0.1-0.1-0.1-0.1
	c0,0-0.1-0.1-0.2-0.1c-0.1,0-0.2,0-0.2,0h-1.7c-0.1,0-0.2,0-0.2,0c-0.1,0-0.1,0-0.2,0.1c-0.1,0-0.1,0.1-0.1,0.1c0,0.1,0,0.1,0,0.2
	v1.3L93.5,100.3z"/>
<path class="st4" d="M135.3,13.2h1.3c0.6,0,1.1,0.1,1.5,0.5c0.4,0.4,0.5,1,0.5,1.6c0.1,0.8-0.4,1.6-1.2,1.9c0.8,0.2,1.3,0.8,1.3,2
	c0,0.5-0.1,1.1-0.5,1.5c-0.3,0.4-0.8,0.5-1.3,0.5h-1.6V13.2z M136.4,14.1v2.8c0.3,0,0.7-0.1,0.9-0.3c0.2-0.3,0.3-0.7,0.3-1.1
	c0-0.4,0-0.8-0.2-1.1C137.1,14.1,136.7,14,136.4,14.1L136.4,14.1z M136.4,17.6v2.8c0.3,0,0.7-0.1,0.9-0.3c0.2-0.3,0.3-0.6,0.3-1
	c0-0.4-0.1-0.8-0.3-1.1C137,17.8,136.7,17.6,136.4,17.6L136.4,17.6z"/>
<path class="st4" d="M143.2,21.2h-1v-0.7l0,0c-0.2,0.4-0.6,0.7-1,0.7c-0.4,0-0.7-0.2-0.9-0.5c-0.4-0.7-0.5-1.5-0.4-2.2
	c0-0.8,0.1-1.5,0.3-2.2c0.2-0.4,0.6-0.7,1.1-0.7c0.2,0,0.4,0,0.6,0.2c0.2,0.1,0.3,0.3,0.4,0.5l0,0v-0.6h1L143.2,21.2z M141.5,20.4
	c0.3,0,0.4-0.2,0.5-0.5c0.1-0.5,0.2-1.1,0.1-1.6c0-0.5,0-0.9-0.1-1.4c0-0.2-0.2-0.4-0.5-0.4c-0.2,0-0.5,0.1-0.5,0.4
	c-0.1,0.4-0.2,0.9-0.1,1.4c0,0.5,0,1.1,0.1,1.6C141.1,20.3,141.3,20.4,141.5,20.4L141.5,20.4z"/>
<path class="st4" d="M145.6,15.7v0.5l0,0c0.2-0.4,0.6-0.6,1.1-0.6c0.8,0,1.2,0.4,1.2,1.3v4.3h-1v-4c0-0.5-0.2-0.8-0.6-0.8
	c-0.2,0-0.3,0.1-0.5,0.2c-0.1,0.2-0.2,0.4-0.2,0.6v4h-1v-5.5L145.6,15.7z"/>
<path class="st4" d="M153,21.2h-1.1l-1.5-2.9l0,0v2.9h-1V13h1v5.1l0,0l1.4-2.3h1.1l-1.4,2.5L153,21.2z"/>
<path class="st4" d="M160.2,21.2h-0.9l-2-5.5l0,0v5.5h-1v-8h0.9l2,5.5l0,0v-5.5h0.9L160.2,21.2z"/>
<path class="st4" d="M165,21.2h-1v-0.7l0,0c-0.2,0.4-0.6,0.7-1,0.7c-0.4,0-0.7-0.2-0.9-0.5c-0.3-0.7-0.5-1.5-0.4-2.2
	c0-0.8,0.1-1.5,0.3-2.2c0.2-0.4,0.6-0.7,1.1-0.7c0.2,0,0.4,0,0.6,0.2c0.2,0.1,0.3,0.3,0.4,0.5l0,0v-0.6h1L165,21.2z M163.3,20.4
	c0.3,0,0.4-0.2,0.5-0.5c0.1-0.5,0.2-1.1,0.1-1.6c0-0.5,0-0.9-0.1-1.4c0-0.2-0.3-0.4-0.5-0.4c-0.2,0-0.5,0.1-0.5,0.4
	c-0.1,0.4-0.2,0.9-0.1,1.4c0,0.5,0,1.1,0.1,1.6C162.9,20.3,163.1,20.4,163.3,20.4z"/>
<path class="st4" d="M172.1,21.2h-1v-4c0-0.5-0.2-0.8-0.6-0.8s-0.7,0.3-0.7,1v3.8h-1v-4.1c0-0.2,0-0.4-0.2-0.5
	c-0.1-0.1-0.3-0.2-0.4-0.2c-0.5,0-0.7,0.3-0.7,0.9v3.9h-1v-5.5h1v0.5c0.3-0.4,0.7-0.6,1.1-0.6c0.5,0,0.9,0.3,1.1,0.7
	c0.3-0.4,0.7-0.7,1.2-0.7c0.8,0,1.1,0.4,1.1,1.3L172.1,21.2z"/>
<path class="st4" d="M176.8,18.7h-2.3c0,0.5,0,0.9,0.1,1.4c0.1,0.3,0.3,0.5,0.6,0.5c0.2,0,0.4-0.1,0.5-0.3c0.1-0.3,0.2-0.5,0.1-0.8
	h0.9c0,1.3-0.6,1.9-1.6,1.9s-1.7-0.9-1.7-2.7c0-2,0.6-2.9,1.8-2.9c0.4,0,0.9,0.2,1.1,0.5c0.4,0.6,0.6,1.4,0.5,2.1L176.8,18.7z
	 M175.8,17.9c0-0.4,0-0.8-0.1-1.2c-0.1-0.2-0.3-0.4-0.5-0.4c-0.2,0-0.5,0.1-0.5,0.4c-0.1,0.4-0.1,0.8-0.1,1.2H175.8z"/>
<path class="st4" d="M22.6,21.5c-0.3,0.2-0.7,0.3-1.1,0.3c-0.7,0-1.4-0.3-1.9-0.8c-0.5-0.6-0.8-1.7-0.8-3.5c0-1.9,0.3-3.2,0.8-3.9
	c0.4-0.6,1.2-1,1.9-1c0.3,0,0.7,0.1,1,0.1v1.1c-0.2-0.1-0.5-0.2-0.8-0.2c-0.5,0-1,0.3-1.2,0.7c-0.4,0.9-0.6,1.8-0.5,2.8
	c0,0.7,0,1.3,0.1,2c0,0.4,0.2,0.8,0.5,1.1c0.3,0.3,0.6,0.4,1,0.4c0.3,0,0.6-0.1,0.9-0.2L22.6,21.5z"/>
<path class="st4" d="M26.6,16.5c-0.4,0-0.8,0.1-1.1,0.3c-0.2,0.2-0.3,0.6-0.3,1.2v3.7H24v-6.1h1.2v0.9l0,0c0.2-0.6,0.7-1,1.4-1h0.1
	L26.6,16.5z"/>
<path class="st4" d="M31.3,18.8h-2.6c0,0.5,0,1,0.1,1.5c0.1,0.3,0.3,0.5,0.6,0.5c0.2,0,0.4-0.1,0.5-0.3c0.1-0.3,0.2-0.6,0.1-0.9h1
	c0,1.4-0.6,2.2-1.8,2.2c-1.3,0-1.9-1-1.9-3c0-2.2,0.7-3.3,2-3.3c0.5,0,1,0.2,1.3,0.6c0.4,0.7,0.6,1.5,0.5,2.4L31.3,18.8z M30.1,17.9
	c0-0.4,0-0.9-0.1-1.3c-0.1-0.2-0.3-0.4-0.5-0.4c-0.3,0-0.5,0.2-0.6,0.4c-0.1,0.4-0.2,0.9-0.1,1.3L30.1,17.9z"/>
<path class="st4" d="M35.4,12.4h1.1v9.3h-1.1v-0.8l0,0c-0.2,0.5-0.6,0.9-1.2,0.9c-0.3,0-0.6-0.1-0.8-0.3c-0.3-0.2-0.4-0.5-0.5-0.8
	c-0.1-0.6-0.2-1.2-0.1-1.8c0-0.7,0-1.4,0.1-2.1c0.1-0.4,0.2-0.7,0.5-1c0.5-0.5,1.3-0.4,1.8,0.1c0.1,0.1,0.2,0.2,0.2,0.3l0,0
	L35.4,12.4z M35.4,18.5c0-0.5,0-1.1-0.1-1.6c0-0.3-0.3-0.5-0.6-0.5c-0.3,0-0.5,0.2-0.6,0.5C34,17.5,34,18,34,18.6
	c0,0.6,0,1.1,0.2,1.7c0,0.3,0.3,0.5,0.6,0.5c0.3,0,0.5-0.2,0.6-0.5C35.4,19.7,35.5,19.1,35.4,18.5L35.4,18.5z"/>
<path class="st4" d="M38,13.7c0-0.2,0.1-0.3,0.2-0.4c0.1-0.1,0.3-0.2,0.5-0.2c0.2,0,0.3,0.1,0.4,0.2c0.1,0.1,0.2,0.3,0.2,0.4
	c0,0.3-0.3,0.6-0.6,0.6c-0.2,0-0.3-0.1-0.5-0.2C38.1,14,38,13.8,38,13.7z M38.1,15.5h1.1v6.1h-1.1L38.1,15.5z"/>
<path class="st4" d="M42.9,16.5h-0.7v5.2H41v-5.2h-0.7v-0.9H41v-1.7h1.2v1.7h0.7L42.9,16.5z"/>
<path class="st4" d="M50.5,21.5c-0.3,0.2-0.7,0.3-1.1,0.3c-0.7,0-1.4-0.3-1.9-0.8c-0.5-0.6-0.8-1.7-0.8-3.5c0-1.9,0.3-3.2,0.8-3.9
	c0.4-0.6,1.1-1,1.9-1c0.3,0,0.7,0.1,1,0.1v1.1c-0.2-0.1-0.5-0.2-0.8-0.2c-0.5,0-1,0.3-1.2,0.7c-0.4,0.9-0.6,1.8-0.5,2.8
	c0,0.7,0,1.3,0.1,2c0,0.4,0.2,0.8,0.5,1.1c0.3,0.3,0.6,0.4,1,0.4c0.3,0,0.6-0.1,0.9-0.2L50.5,21.5z"/>
<path class="st4" d="M55.6,21.7h-1.1v-0.8l0,0c-0.2,0.5-0.6,0.8-1.1,0.8c-0.4,0-0.8-0.2-1-0.6c-0.4-0.8-0.6-1.6-0.5-2.5
	c0-0.8,0.1-1.7,0.3-2.5c0.2-0.5,0.7-0.8,1.2-0.8c0.2,0,0.4,0.1,0.6,0.2c0.2,0.2,0.4,0.4,0.5,0.6l0,0v-0.7h1.2L55.6,21.7z M53.8,20.8
	c0.3,0,0.5-0.2,0.6-0.5c0.1-0.6,0.2-1.2,0.1-1.8c0-0.5,0-1-0.1-1.6c0-0.3-0.3-0.5-0.5-0.5c-0.3,0-0.5,0.2-0.6,0.4
	c-0.1,0.5-0.2,1-0.2,1.5c0,0.6,0,1.2,0.1,1.8C53.3,20.6,53.5,20.8,53.8,20.8z"/>
<path class="st4" d="M59.8,16.5c-0.4,0-0.8,0.1-1.1,0.3c-0.2,0.2-0.3,0.6-0.3,1.2v3.7h-1.2v-6.1h1.2v0.9l0,0c0.2-0.6,0.7-1,1.4-1
	h0.1L59.8,16.5z"/>
<path class="st4" d="M63.3,12.4h1.1v9.3h-1.1v-0.8l0,0c-0.2,0.7-0.9,1-1.5,0.9c-0.2,0-0.3-0.1-0.5-0.3c-0.3-0.2-0.4-0.5-0.5-0.8
	c-0.1-0.6-0.2-1.2-0.2-1.8c0-0.7,0-1.4,0.1-2.1c0.1-0.4,0.2-0.7,0.5-1c0.5-0.5,1.3-0.4,1.8,0.1c0.1,0.1,0.2,0.2,0.2,0.3l0,0
	L63.3,12.4z M63.3,18.5c0-0.5,0-1.1-0.1-1.6c0-0.3-0.3-0.5-0.6-0.5c-0.3,0-0.5,0.2-0.6,0.5c-0.1,0.5-0.2,1.1-0.2,1.6
	c0,0.6,0,1.1,0.2,1.7c0,0.3,0.3,0.5,0.6,0.5c0.3,0,0.5-0.2,0.6-0.5C63.3,19.7,63.4,19.1,63.3,18.5L63.3,18.5z"/>
<path class="st4" d="M23.1,80.8c0,0.7-0.1,1.4-0.4,2c-0.5,0.7-1.6,0.9-2.3,0.3c-0.1-0.1-0.2-0.2-0.3-0.3c-0.3-0.6-0.5-1.3-0.5-2
	c0-0.7,0.1-1.4,0.4-2c0.5-0.7,1.6-0.9,2.3-0.4c0.1,0.1,0.3,0.2,0.4,0.4C23,79.4,23.2,80.1,23.1,80.8z M20.4,80.8c0,0.5,0,1,0.2,1.5
	c0.2,0.4,0.6,0.6,1,0.4c0.2-0.1,0.3-0.2,0.4-0.4c0.2-0.5,0.3-1,0.2-1.5c0-0.5,0-1-0.2-1.5c-0.2-0.4-0.6-0.6-1-0.4
	c-0.2,0.1-0.3,0.2-0.4,0.4C20.5,79.8,20.4,80.3,20.4,80.8z"/>
<path class="st4" d="M26.2,83.4h-0.8v-3.4c0-0.4,0-0.7,0-1c-0.1,0.1-0.1,0.1-0.2,0.2l-0.8,0.7L24,79.4l1.5-1.2h0.7L26.2,83.4z"/>
<path class="st4" d="M31.5,83.4h-3.5v-0.6l1.3-1.3c0.4-0.4,0.7-0.7,0.8-0.9c0.1-0.1,0.2-0.3,0.3-0.5c0.1-0.2,0.1-0.3,0.1-0.5
	c0-0.2-0.1-0.4-0.2-0.6c-0.2-0.1-0.4-0.2-0.6-0.2c-0.2,0-0.4,0-0.6,0.1c-0.2,0.1-0.4,0.2-0.6,0.4L28,78.8c0.3-0.2,0.5-0.4,0.9-0.5
	c0.3-0.1,0.6-0.2,0.9-0.2c0.4,0,0.8,0.1,1.2,0.4c0.3,0.2,0.5,0.6,0.4,1c0,0.2,0,0.5-0.1,0.7c-0.1,0.2-0.2,0.5-0.4,0.7
	c-0.3,0.3-0.6,0.6-0.9,0.9L29,82.6l0,0h2.5L31.5,83.4z"/>
<path class="st4" d="M35.4,79.4c0,0.3-0.1,0.6-0.3,0.8c-0.2,0.2-0.5,0.4-0.8,0.4l0,0c0.3,0,0.7,0.2,0.9,0.4c0.2,0.2,0.3,0.5,0.3,0.8
	c0,0.5-0.2,0.9-0.5,1.2c-0.4,0.3-1,0.4-1.5,0.4c-0.5,0-1-0.1-1.5-0.3v-0.7c0.2,0.1,0.5,0.2,0.7,0.2c0.2,0.1,0.5,0.1,0.7,0.1
	c0.3,0,0.6-0.1,0.9-0.2c0.2-0.2,0.3-0.4,0.3-0.7c0-0.2-0.1-0.5-0.3-0.6c-0.3-0.1-0.7-0.2-1-0.2h-0.5v-0.7h0.5c0.8,0,1.2-0.3,1.2-0.9
	c0-0.2-0.1-0.4-0.2-0.5c-0.2-0.1-0.4-0.2-0.7-0.2c-0.2,0-0.4,0-0.6,0.1c-0.2,0.1-0.4,0.2-0.6,0.3l-0.4-0.6c0.5-0.4,1.1-0.5,1.7-0.5
	c0.4,0,0.9,0.1,1.2,0.3C35.3,78.7,35.5,79.1,35.4,79.4z"/>
<path class="st4" d="M145.6,84.7h3.6c0.2,0,0.3,0.1,0.4,0.2l0.2,0.2c0.1,0.1,0.2,0.3,0.2,0.5v4.7c0,0.2-0.1,0.3-0.2,0.4l-0.2,0.2
	c-0.1,0.1-0.3,0.2-0.4,0.2h-3.6c-0.2,0-0.3-0.1-0.4-0.2l-0.2-0.2c-0.1-0.1-0.2-0.3-0.2-0.4v-4.7c0-0.2,0.1-0.3,0.2-0.5l0.2-0.2
	C145.3,84.8,145.4,84.7,145.6,84.7z M149.3,90.1v-4.4c0-0.1,0-0.1,0-0.2c0,0,0-0.1-0.1-0.1c0,0-0.1-0.1-0.1-0.1h-3.4
	c0,0-0.1,0-0.1,0.1c0,0-0.1,0.1-0.1,0.1c0,0.1,0,0.1,0,0.2v4.4c0,0.1,0,0.1,0,0.2c0,0,0.1,0.1,0.1,0.1l0.1,0.1h3.4l0.1-0.1
	c0,0,0.1-0.1,0.1-0.1C149.3,90.2,149.3,90.2,149.3,90.1z"/>
<path class="st4" d="M151.9,86.6l-0.4-0.4l1.3-1.4h1.1v6.4h-0.7v-5.6c0-0.1,0-0.2,0-0.2l0,0L151.9,86.6z"/>
<path class="st4" d="M158.9,84.7h0.7l-4.8,7.2h-0.7L158.9,84.7z"/>
<path class="st4" d="M160.1,88.3l0.4-0.3c0.1-0.1,0.2-0.1,0.2-0.1l0,0c-0.1,0-0.2-0.1-0.2-0.1l-0.3-0.2c-0.1-0.1-0.2-0.2-0.1-0.3
	v-1.6c0-0.2,0.1-0.3,0.2-0.5l0.2-0.2c0.1-0.1,0.3-0.2,0.4-0.2h2.8c0.2,0,0.3,0.1,0.4,0.2l0.2,0.2c0.1,0.1,0.2,0.3,0.2,0.5v1.6
	c0,0.1,0,0.2-0.1,0.3l-0.3,0.2c-0.1,0.1-0.2,0.1-0.2,0.1l0,0c0.1,0,0.2,0.1,0.2,0.1l0.4,0.3c0.1,0.1,0.1,0.2,0.1,0.4v1.6
	c0,0.2-0.1,0.3-0.2,0.4l-0.2,0.2c-0.1,0.1-0.3,0.2-0.4,0.2h-3c-0.2,0-0.3-0.1-0.4-0.2l-0.2-0.2c-0.1-0.1-0.2-0.3-0.2-0.4v-1.6
	C160,88.5,160,88.4,160.1,88.3z M163.3,88.2h-1.8h-0.2c0,0-0.1,0-0.2,0.1l-0.2,0.2c-0.1,0.1-0.1,0.1-0.1,0.1c0,0.1,0,0.1,0,0.2v1.3
	c0,0.1,0,0.1,0,0.2c0,0,0.1,0.1,0.1,0.1c0,0,0.1,0.1,0.1,0.1h2.8l0.1-0.1c0,0,0.1-0.1,0.1-0.1c0-0.1,0-0.1,0-0.2v-1.3
	c0-0.1,0-0.1,0-0.2l-0.1-0.1l-0.2-0.2c-0.1-0.1-0.1-0.1-0.2-0.1L163.3,88.2z M163.4,85.4h-2.3c0,0-0.1,0-0.1,0.1
	c-0.1,0-0.1,0.1-0.1,0.1c0,0.1,0,0.1,0,0.2v1.2c0,0.1,0,0.1,0,0.2c0,0.1,0.1,0.1,0.1,0.1l0.2,0.2c0,0,0.1,0.1,0.1,0.1h2
	c0.1,0,0.1-0.1,0.1-0.1l0.2-0.2c0.1-0.1,0.1-0.1,0.1-0.1c0-0.1,0-0.1,0-0.2v-1.2c0-0.1,0-0.1,0-0.2c0,0-0.1-0.1-0.1-0.1
	c0,0-0.1-0.1-0.1-0.1L163.4,85.4z"/>
<path class="st4" d="M167.3,84.7h3.6c0.2,0,0.3,0.1,0.4,0.2l0.2,0.2c0.1,0.1,0.2,0.3,0.2,0.5v4.7c0,0.2-0.1,0.3-0.2,0.4l-0.2,0.2
	c-0.1,0.1-0.3,0.2-0.4,0.2h-3.6c-0.2,0-0.3-0.1-0.4-0.2l-0.2-0.2c-0.1-0.1-0.2-0.3-0.2-0.4v-4.7c0-0.2,0.1-0.3,0.2-0.5l0.2-0.2
	C167,84.8,167.1,84.7,167.3,84.7z M171,90.1v-4.4c0-0.1,0-0.1,0-0.2c0,0-0.1-0.1-0.1-0.1c0,0-0.1-0.1-0.1-0.1h-3.4
	c0,0-0.1,0-0.1,0.1c0,0-0.1,0.1-0.1,0.1c0,0.1,0,0.1,0,0.2v4.4c0,0.1,0,0.1,0,0.2c0,0,0.1,0.1,0.1,0.1l0.1,0.1h3.4l0.1-0.1
	c0,0,0.1-0.1,0.1-0.1C171,90.2,171,90.2,171,90.1z"/>
<path class="st4" d="M128.4,86.4L128.4,86.4C128.4,86.4,128.4,86.3,128.4,86.4l0.7-2.4h0.3l-0.9,2.7h-0.4l-0.8-2.7h0.3L128.4,86.4
	L128.4,86.4z"/>
<path class="st4" d="M129.7,86.7l0.9-2.7h0.4l0.9,2.7h-0.3l-0.2-0.6h-1.3l-0.2,0.6H129.7z M130.9,84.2L130.9,84.2c0,0,0,0.1,0,0.1
	l-0.5,1.5h1.1l-0.5-1.5C130.9,84.3,130.9,84.3,130.9,84.2z"/>
<path class="st4" d="M134.2,86.4v0.3h-1.6V84h0.3v2.4L134.2,86.4z"/>
<path class="st4" d="M134.6,84h0.3v2.7h-0.3V84z"/>
<path class="st4" d="M135.7,86.7V84h1.4c0.1,0,0.1,0,0.2,0.1l0.4,0.3c0.1,0,0.1,0.1,0.1,0.2v1.6c0,0.1,0,0.1-0.1,0.2l-0.4,0.3
	c0,0.1-0.1,0.1-0.2,0.1L135.7,86.7z M137.4,86v-1.4c0-0.1,0-0.1-0.1-0.2l-0.2-0.2c0-0.1-0.1-0.1-0.2-0.1h-1v2.1h1
	c0.1,0,0.1,0,0.2-0.1l0.2-0.2C137.4,86.1,137.4,86.1,137.4,86z"/>
<path class="st4" d="M127.9,88.6h2v0.3H129v2.4h-0.3v-2.4h-0.8L127.9,88.6z"/>
<path class="st4" d="M132,88.6h0.3v2.7H132V90h-1.4v1.2h-0.3v-2.7h0.3v1.2h1.4V88.6z"/>
<path class="st4" d="M133,88.6h1.4c0.1,0,0.1,0,0.2,0.1l0.1,0.1c0.1,0,0.1,0.1,0.1,0.2v0.9c0,0.1,0,0.1-0.1,0.2l-0.1,0.1
	c-0.1,0-0.1,0.1-0.2,0.1h-0.2l0.4,0.6l0.1,0.1c0,0,0,0,0.1,0.1l0,0l0.1,0.1c0,0,0,0.1,0,0.1v0.2h-0.2c0,0-0.1,0-0.1,0l-0.1-0.1
	c-0.1,0-0.1-0.1-0.1-0.1l-0.5-0.8h-0.6v1.1H133V88.6z M133.3,88.8v1.1h1h0.1l0,0V89v-0.1h-0.1h-1V88.8z"/>
<path class="st4" d="M137.3,88.6h0.3v2.3c0,0.1,0,0.1-0.1,0.2l-0.1,0.1c0,0-0.1,0.1-0.2,0.1H136c-0.1,0-0.1,0-0.2-0.1l-0.1-0.1
	c-0.1,0-0.1-0.1-0.1-0.2v-2.3h0.3v2.2c0,0,0,0.1,0,0.1s0,0,0,0l0,0h1.2h0.1l0,0c0,0,0,0,0-0.1L137.3,88.6z"/>
<polygon class="st4" points="139.5,86 139.5,89.2 142,87.6 "/>
</svg>
