<svg xmlns="http://www.w3.org/2000/svg" viewBox="0 0 1088.41 399.63"><defs><style>.cls-1{fill:#fff;}.cls-2{fill:#f09819;}</style></defs><title>foobar_logo</title><g id="Layer_2" data-name="Layer 2"><g id="Layer_1-2" data-name="Layer 1"><path class="cls-1" d="M135.59,132.12,135.47,143q0,16.06-.47,28.6-13.71,1.17-37.5,1.17l-27.07.12v3.39l-.23,10.32c0,2.73.11,5.39.35,8q29.3-2.46,43.41-2.46t17.29,2.1v39.26q0,3.87-1.52,5.16a7.16,7.16,0,0,1-4.69,1.29h-1.52l-6.33-.24q-21,1.17-46.53,1.76l.82,46.64-.11,4v11c0,2.35-.71,3.59-2.11,3.75l-67,.59a22.84,22.84,0,0,0-1.76-3.17Q0,296.54,0,291.14l.7-163q0-1.51,15.94-1.52l2.93.11h8l56.6-.58,40.2.47h4l1.76-.12c2.18,0,3.65.49,4.39,1.47A6.75,6.75,0,0,1,135.59,132.12Z"/><path class="cls-2" d="M139.1,215.44l.24-2.58a240.13,240.13,0,0,1,3.75-26,78.13,78.13,0,0,1,7.61-21.15,81.69,81.69,0,0,1,35-32.87,107,107,0,0,1,48.4-11.19q26,0,47.17,10.43,12.66,6.21,19.8,15.7,13.72,17.12,18.05,31.52t4.34,33.28q0,42-17.35,64l-5.39,7.15q-10.89,12.64-30.82,19.51a125.55,125.55,0,0,1-39.49,7.09q-33.51,0-55-14.07Q139.1,272.74,139.1,215.44Zm67.38-.94a4.07,4.07,0,0,1-.11.58v.36c-.32,3.28-.47,6.95-.47,11a89.59,89.59,0,0,0,1,12.89,78.22,78.22,0,0,0,3.29,13.6,24.72,24.72,0,0,0,7.09,11,17.18,17.18,0,0,0,11.54,4.45,28.28,28.28,0,0,0,10.78-1.81A24.06,24.06,0,0,0,247,262a24.54,24.54,0,0,0,5.22-7.62q5.63-12.76,5.62-39.61,0-27.3-6.27-38.26t-18.92-11a20.09,20.09,0,0,0-11.08,3.05,26.53,26.53,0,0,0-7.15,6.33q-2.4,3.29-4.92,13.94A86.11,86.11,0,0,0,207,208.52Z"/><path class="cls-2" d="M331.88,215.44l.23-2.58a245.21,245.21,0,0,1,3.75-26,77.82,77.82,0,0,1,7.62-21.15,81.69,81.69,0,0,1,35-32.87,107,107,0,0,1,48.4-11.19q26,0,47.16,10.43,12.66,6.21,19.81,15.7,13.71,17.12,18.05,31.52t4.33,33.28q0,42-17.34,64l-5.39,7.15q-10.91,12.64-30.82,19.51a125.66,125.66,0,0,1-39.5,7.09q-33.51,0-55-14.07Q331.87,272.74,331.88,215.44Zm67.38-.94a3.35,3.35,0,0,1-.12.58v.36q-.47,4.92-.47,11a88.25,88.25,0,0,0,1,12.89,78.18,78.18,0,0,0,3.28,13.6A24.72,24.72,0,0,0,410,264a17.2,17.2,0,0,0,11.54,4.45,28.28,28.28,0,0,0,10.78-1.81A22,22,0,0,0,445,254.34q5.63-12.76,5.63-39.61,0-27.3-6.27-38.26t-18.93-11a20,20,0,0,0-11.07,3.05,26.23,26.23,0,0,0-7.15,6.33q-2.4,3.29-4.92,13.94a86.11,86.11,0,0,0-2.52,19.69Z"/><path class="cls-1" d="M533.32,172.78l-.12-2.34v-7.27q0-15.12.59-34.69l-.24-.23,6.33-.35q30.58-1.65,39.73-1.64h54.61q28,0,46.52,11.6A40.86,40.86,0,0,1,691.41,153a53.67,53.67,0,0,1,4.1,21.45q0,23.09-30.94,39.26,17.46,4.8,26.78,15.41T700.66,255q0,27.2-24.37,41.25-17.92,10.56-45.35,10.55L596,306.37q-22.62,0-60,1.06-3.28-6.92-3.29-54.73T533.32,172.78Zm98.09,19.69a23,23,0,0,0,2.34-10.78q0-12.31-8.79-16.53a42,42,0,0,0-18.4-4.22q-9.6,0-9.61,7,0,12.54.59,25.67l.23,6.21q.24,4.46,5.16,5.27l5.74-.7Q626.49,202.31,631.41,192.47Zm-25.2,78.4q30.35,0,30.35-21.22,0-13.47-8.2-18-7.38-4-22.62-4.46h-3.4l-2.11,6.57q-.81,12.06-.82,23.73t2.47,13.42Z"/><path class="cls-1" d="M903.52,304.85q-.12,1.51-6.45,1.52H886.29l-7.27.12h-7.14l-11.37.12q-17,0-28.24-.82c-.24-.08-.51-.55-.82-1.41l-.59-2.46a82.38,82.38,0,0,0-5.51-23.32l-50.15.47q-.48,2-3.05,11.83t-3.87,14.89Q767.11,307,757.15,307l-2.93-.12h-6.8l-30.47.7h-3.51l-3.28.12H702a17.46,17.46,0,0,1-1.75-2.11Q711.92,265,732,205l2.7-8.32h-.12L737.7,187q1.51-4.69,8.73-26t9-27.54c1.21-4.14,1.93-6.28,2.17-6.44h19.45l41.6-.59,11.25.59,9.26-.59q7,0,7,2.82,11.71,32.69,31.29,94.1t22,69l1.64,5.86A45.54,45.54,0,0,0,903.52,304.85Zm-116-64,4.8.11,28-.11q-1.75-14-2.69-20.51l-4.46-20q-7-31-7.26-31.64c-.16-.39-.29-.76-.41-1.12a4.34,4.34,0,0,0-.29-.7,3.61,3.61,0,0,1-.3-.64,1.81,1.81,0,0,0-.35-.65,3.07,3.07,0,0,1-.41-.53,6.82,6.82,0,0,0-3.4-2.46q-3.16.71-18.86,70.55l-1.29,7.74Z"/><path class="cls-1" d="M962.23,127.31l37.61-.35q12,0,21.68.47,26.13.7,39.79,12.3t13.65,32.7q0,14.64-8.55,25t-25,18.22q26,8.21,31.52,39.84,1.29,6.92,2,15.82t1.23,12l1.17,6a154.08,154.08,0,0,0,3.28,15.24l-.47.35q-19.92,1.29-36.38,1.29t-29.12-.59H1014q-3.63,0-7.73-34.57l-.59-5q-.47-12.88-4.51-17.34t-14-4.45l-1.53.11h-6.21v35.63l.12,3.75v21.44a2,2,0,0,1-1.76,1.41q-12.88.47-36.38.47t-31,.12l-.7-.24-.24.12a1.43,1.43,0,0,1-.7-.35l.23-10.55-.11-3.52.47-48.63v-8.55l.11-8.79.12-30.35.12-4-.35-26.6.46-37.38q0-.94,6.68-.94l7.5.12h7.15l14.88.11Zm43.36,38.2q-7-3-18.75-3H980q-1.29,1.88-1.29,19.74t.59,24q36.67-.83,36.68-25.31Q1016,170.43,1005.59,165.51Zm75.23,139v.12a.11.11,0,0,1-.12-.12Zm.59-.35-.59.35v-.24C1080.82,304.19,1081,304.15,1081.41,304.15Z"/><rect class="cls-1" x="1.41" y="80.95" width="1087" height="15"/><rect class="cls-1" x="1.41" y="326.95" width="1087" height="15"/><path class="cls-1" d="M487.83,17q0,1.29-.27,1.29l-14.14-.12c-.06,2.53-.08,6.48-.08,11.84s0,9.09,0,11.17l.15,20.71a.83.83,0,0,1-.78.58l-8.24-.12,0,0-2.58,0h-7.15c-1.92,0-3.37,0-4.33,0l-.67-.58-.5-.63q0-3.44.27-15.27l.43-20.78-.08-1a27.33,27.33,0,0,0-.53-4.59,1.08,1.08,0,0,0-1-.78c-.5,0-.86-.06-1.1-.06l-1.56.08L436,18.63a12.85,12.85,0,0,1-.5-4.57l.07-3.44v-1c0-4.17-.06-6.39-.11-6.68a1.51,1.51,0,0,1,.31.08l49.73-.43a5.16,5.16,0,0,1,1.91.21.84.84,0,0,1,.39.8V13.87Z"/><path class="cls-1" d="M540.72,35.35l0,12.15v7.15l0,6.72H518.61l0-20,.12-4.34a10.59,10.59,0,0,0-1-5.29A3,3,0,0,0,515.1,30a3.39,3.39,0,0,0-3.6,2.89A22.56,22.56,0,0,0,511,38.2v5l0,1.64V61.33l-11.21,0H488.69l0-30.63V.08Q496.51,0,511.27,0l0,19.69A20.07,20.07,0,0,1,518,14.77a17,17,0,0,1,7.16-1.84,14.09,14.09,0,0,1,6.37,1.56,15,15,0,0,1,5.16,4.14,28.12,28.12,0,0,1,2.93,6.51,22,22,0,0,1,1.21,6.34Z"/><path class="cls-1" d="M564.86,13.44a13.38,13.38,0,0,1,3.75-.51c1.33,0,2.59.05,3.79.16l1.64.15a39.52,39.52,0,0,1,5.94.9v0l.82.35Q589,17,593.57,22.19v0a31.28,31.28,0,0,1,2.6,3.77,8.67,8.67,0,0,1,1.54,3.49l.32,1.06.19,1.13A16.82,16.82,0,0,1,599,36c0,1.17,0,2.07,0,2.69H566.81V40a7.28,7.28,0,0,1,.24,1.88c0,.65,0,1.16,0,1.54a7.61,7.61,0,0,0,.1,1.09c.05.35.08.64.09.86a3.05,3.05,0,0,0,.18.78,6.28,6.28,0,0,1,.18.61,2.77,2.77,0,0,0,.23.62c.14.32.26.61.35.88a2,2,0,0,0,.53.8v0l.43.82a4.12,4.12,0,0,0,2,1.18,3.86,3.86,0,0,0,2.91-2.23,21.33,21.33,0,0,0,1.27-4.37,15.59,15.59,0,0,1,4-.4l5,.12h14.42A21.07,21.07,0,0,1,596,52.85h0a16.42,16.42,0,0,1-6.32,5.51q-12.15,4.26-15.59,4.26a5.53,5.53,0,0,1-1-.08h-.89l-.36,0h-.35a5.14,5.14,0,0,1-.78-.08,1.75,1.75,0,0,1-.94.23l-3.39-.39a3.38,3.38,0,0,1-1.12.12,23.54,23.54,0,0,1-4.39-1.05v0l-.94-.28-.94-.31a22.66,22.66,0,0,1-10-6,20,20,0,0,1-5.35-10c-.08-.47-.22-1.18-.43-2.13a10.92,10.92,0,0,1-.31-1.94V38.83a9,9,0,0,1,0-1v-.58a22,22,0,0,1,4.92-14.32,26.15,26.15,0,0,1,13.2-8.5l.94-.27a13.91,13.91,0,0,0,3-.74Zm11.68,20.08.82-.51a23.59,23.59,0,0,0-1.25-5.41A21.46,21.46,0,0,0,575,25.55a3,3,0,0,0-2.68-1.64,3.4,3.4,0,0,0-2.83,1.64,16.91,16.91,0,0,0-2.62,8.12c1.67-.1,3.21-.15,4.61-.15Z"/><path class="cls-2" d="M94.69,361.28l4.25,0h9.5a.2.2,0,0,1,.14.05l.88,5.71c.23,1.66.6,4.17,1.11,7.51s.84,5.46,1,6.34l.19,1.31h.93q.63-7.05,2.39-18.58l.1-.56a3.7,3.7,0,0,0,0-.53,2.1,2.1,0,0,1,.23-1c.14-.25.56-.38,1.28-.38a106.44,106.44,0,0,1,11.45.44,1.47,1.47,0,0,1,.19.56q-.59,2.75-1.92,8.52t-2,8.82l-.19.9c0,.1-.14.39-.31.88a2.9,2.9,0,0,0-.23,1L122,390l-.78,3.83c-.44,2.16-.74,3.72-.9,4.66l-.12,0c-1.14.07-2.88.1-5.2.1h-3.81l-1.32,0c-1.84,0-3.52,0-5,.09-.15,0-.38-1.28-.71-3.85s-.5-3.95-.54-4.13l-.22-1.22q-.78-5.13-1.56-10.82l-.9,0q-1.4,7.17-2.47,17.43c-.18,1.79-.53,2.73-1.05,2.81-2.32-.08-4.58-.12-6.76-.12s-5,0-8.4.17c-.47-.38-.83-1.36-1.07-3L81,395q-.93-4.94-3.86-18.16l-.51-2.37q-.28-1.41-1.22-5.6c-.62-2.8-1.15-5.27-1.59-7.44,0-.13.13-.24.35-.34a9,9,0,0,0,1.19.07h.29l2.32-.07,3.37-.07c1.11,0,2,0,2.57.07h1.53l.81.05h.34q.78,0,2.2,12.21.63,5.51.76,6.44l.17,1.39,1,0q.9-5.67,2-13.24a30,30,0,0,1,.39-3.49,9.86,9.86,0,0,1,.81-3.22C94,361.27,94.3,361.28,94.69,361.28Z"/><path class="cls-2" d="M165,389.69l0,2.91c0,1.22,0,3.15,0,5.78-.22.31-2,.47-5.42.47s-6.41-.05-9.08-.15c0,0-.19-.23-.46-.61v-3.9l.05-7.5c0-.73-.08-1.16-.25-1.29a3.15,3.15,0,0,0-1.49-.2H148a23.46,23.46,0,0,0-3.66.22v3.42l0,9.45c-.24.26-2.29.39-6.13.39H137q-5,0-7.25-.15c-.31-.1-.46-1.25-.46-3.47l.14-5.39.25-21.88v-1.17c0-.24,0-1.09,0-2.55a8.46,8.46,0,0,1,.27-2.77h.12c1.08,0,1.87.05,2.37.05h2.73l3-.05h.93c2.76,0,4.37.32,4.83.95a2.61,2.61,0,0,1,.34,1.49l-.07,3.05v1.15l-.15,4.83c0,.36,0,.83.08,1.42h1.51l.61,0h2a13.85,13.85,0,0,0,2.2-.17v-5.78l0-1.81v-1.68l0-.39v-1.25a6.48,6.48,0,0,1,.13-1.76c.09-.21.33-.31.7-.31l.49,0h1.59l5.27-.15c4.2,0,6.3.34,6.3,1v1.74l0,.58,0,1.27v3.79l.12,15.57c0,.26,0,.61,0,1v1.17c0,.52,0,1.21,0,2.05Z"/><path class="cls-2" d="M170,367.82l-.12-6.42.17.07q18.56-.32,28-.34a.28.28,0,0,1,.15.15v6.88c0,.67,0,1.21-.05,1.64q-.12.39-1.44.39h-.17q-5.91,0-12.3-.2c0,.15,0,.41-.07.78s-.07.65-.08.81l-.12.93a30.54,30.54,0,0,0-.17,3.22l7.56-.17c1.31,0,2.25-.05,2.84-.05h.39a15.22,15.22,0,0,1,1.95.08.48.48,0,0,1,.46.5l0,.2v.59l.12,6.27,0,0v0q-7.43.36-11.87.37H184v5.9l13.26-.41a2,2,0,0,1,1.39.32c0,.42,0,1,0,1.8l.17,6.64a.62.62,0,0,1-.54.71l-8.1-.07c-1.6,0-4.77.06-9.53.17l-4,.1c-2.83.1-4.93.14-6.3.14l-.07,0h0l-.46-.47v-.85l.15-26.1Z"/><path class="cls-2" d="M238.78,381l0,1.64v9l.05,4.3v1.22l0,1.15c-.1.13-.49.19-1.19.19H237l-7.66.1-7.28,0a58.46,58.46,0,0,1-2.66-7.11l-4.66-12.38-.88.13,0,2.49v6.61l.1,6.62v2.73c0,.73-.16,1.12-.49,1.15-1.61-.05-3.15-.07-4.61-.07h-.76l-3.69.09h-.48l-1.76.05-.08-.05c-.53-.5-.8-.87-.8-1.09v-.44l0-.49.13-9.52q0-15.67.29-23.71l.05-2q0-.21,16.82-.39a3.13,3.13,0,0,1,.44,1.08v-.08l.14.49q1.82,5.17,4.4,11.88l2.64,6.85.83-.05.09-19.9c0-.13,1.19-.19,3.57-.19l6.13.12h1.8Q238.79,369.44,238.78,381Z"/><path class="cls-2" d="M244,367.82l-.12-6.42.17.07q18.56-.32,27.95-.34a.31.31,0,0,1,.15.15v6.88c0,.67,0,1.21-.05,1.64q-.12.39-1.44.39h-.17q-5.91,0-12.31-.2,0,.22-.06.78c0,.38-.07.65-.08.81l-.13.93c-.08.61-.13,1.69-.17,3.22l7.57-.17c1.3,0,2.25-.05,2.83-.05h.39a15.31,15.31,0,0,1,2,.08.48.48,0,0,1,.46.5l0,.2v.59l.12,6.27,0,0v0q-7.41.36-11.86.37H258v5.9l13.26-.41a2,2,0,0,1,1.39.32c0,.42,0,1,0,1.8l.17,6.64a.62.62,0,0,1-.54.71l-8.11-.07q-2.39,0-9.52.17l-4,.1c-2.83.1-4.93.14-6.3.14l-.07,0h0l-.46-.47v-.85l.14-26.1Z"/><path class="cls-2" d="M299.18,398.65l-3.07-.07h-1.83c-.52.06-1.65.1-3.38.1s-4.31,0-7.73.12q-1-.85-1.78-4.94c-.56-2.73-1.26-5.53-2.12-8.4s-1.38-4.69-1.59-5.43l-.74-2.59c-.21-.75-.58-2-1.1-3.84q-2.46-8.37-3.24-12.18,0-.19,14.3-.19a.82.82,0,0,1,.69.31q1.92,11.46,4.34,25l.2,1.29h1l.22-1.27q.76-4.75,2.89-15.36l.58-2.76c.2-.92.64-3.23,1.34-6.93q1.13-.29,12.43-.29h1.1a.94.94,0,0,1,.37.32l-4.91,17.74c-.36,1.29-.57,2.11-.64,2.47l-1.14,4.49q-2.76,11.74-4,12.5c-.44,0-1.13,0-2.07-.05Z"/><path class="cls-2" d="M313.86,367.82l-.13-6.42a.62.62,0,0,1,.18.07q18.55-.32,27.95-.34a.36.36,0,0,1,.15.15v6.88c0,.67,0,1.21-.05,1.64q-.12.39-1.44.39h-.17q-5.91,0-12.31-.2,0,.22-.06.78c0,.38-.07.65-.08.81l-.13.93c-.08.61-.14,1.69-.17,3.22l7.57-.17c1.3,0,2.25-.05,2.83-.05h.39a15.31,15.31,0,0,1,2,.08.48.48,0,0,1,.46.5l0,.2v.59l.12,6.27,0,0v0q-7.41.36-11.86.37h-1.15v5.9l13.26-.41a2,2,0,0,1,1.39.32q0,.63,0,1.8l.18,6.64a.62.62,0,0,1-.54.71l-8.11-.07c-1.59,0-4.77.06-9.52.17l-4,.1c-2.83.1-4.93.14-6.3.14l-.07,0h0l-.46-.47v-.85l.14-26.1Z"/><path class="cls-2" d="M356.61,361.32l7.83-.07c1.66,0,3.17,0,4.52.1q5.44.15,8.29,2.56a8.46,8.46,0,0,1,2.84,6.81,7.92,7.92,0,0,1-1.78,5.22,15,15,0,0,1-5.2,3.79q5.42,1.71,6.57,8.3a32.06,32.06,0,0,1,.42,3.3c.11,1.24.2,2.07.26,2.49l.24,1.24a32.3,32.3,0,0,0,.69,3.18l-.1.07c-2.77.18-5.29.27-7.58.27s-4.31,0-6.07-.12h-.14q-.76,0-1.61-7.2l-.13-1.05c-.06-1.79-.37-3-.94-3.62a3.79,3.79,0,0,0-2.91-.92l-.32,0h-1.3v7.42l0,.78v4.47a.41.41,0,0,1-.37.29c-1.79.07-4.31.1-7.58.1s-5.41,0-6.46,0l-.14,0-.05,0a.31.31,0,0,1-.15-.07l0-2.2,0-.73.1-10.13v-1.79l0-1.83,0-6.32,0-.83-.07-5.54.09-7.79c0-.13.47-.2,1.39-.2l1.57,0h1.49l3.1,0Zm9,8a10.07,10.07,0,0,0-3.91-.63h-1.41q-.27.39-.27,4.11c0,2.48,0,4.15.12,5q7.63-.17,7.64-5.27A3.37,3.37,0,0,0,365.64,369.28Zm15.67,29v0l0,0Zm.13-.07-.13.07v-.05S381.35,398.17,381.44,398.17Z"/><path class="cls-2" d="M400.28,376.71l-1.17,0h-1a6.39,6.39,0,0,1-.51-1c.29-.72.67-1.71,1.14-3s.79-2.16,1-2.66l1.34-3.67,2.27-5.61a38,38,0,0,1,5.14-.15c3.21,0,4.82.12,4.82.37a16.75,16.75,0,0,1-.67,3.93c-.45,1.71-.72,2.8-.82,3.27l-.24,1.17c-.82,4.1-1.4,6.43-1.76,7-.1.17-.2.25-.29.25h-.05c-1.83.1-4.06.15-6.72.15Z"/><path class="cls-2" d="M452.19,379.12l-.08,6.86a14.23,14.23,0,0,1-1,5.57,10.93,10.93,0,0,1-2.67,3.91q-4.51,4.1-13.36,4.1t-13.74-4.3a12,12,0,0,1-2.92-3.87A14.58,14.58,0,0,1,417,386q.12-10.22.12-18.88a10.33,10.33,0,0,1-.12-2.56,13.29,13.29,0,0,1,.22-3.17h.51q3.6-.19,9.79-.2a8.63,8.63,0,0,0,1.6.12c.78,0,1.31.05,1.6.08l.76.1q.17,4.83.22,13.3l-.15,9.82c0,3.25,1,4.88,2.83,4.88a2.48,2.48,0,0,0,2-1.05,4.1,4.1,0,0,0,.87-2.37l.09-.24.08-8.23,0-.73q0-5.67-.15-10.94l0-1.78c0-.72-.05-1.36-.05-1.93a1.86,1.86,0,0,1,.27-1.17q9.42,0,14.2.07a2.27,2.27,0,0,0,.44.32h0l.27.17q-.19,4.61-.2,11.86v4.2Z"/><path class="cls-2" d="M463.83,360.74l3.1-.05c2.49,0,3.74.09,3.74.27a.62.62,0,0,0-.05.27c-.23.55-.51,1.34-.85,2.36s-.57,1.68-.66,2l-.71,2q-1.78,5.34-3,8.39c-.69.54-2.32.81-4.91.81h-2.22l-.32,0h-1.66a2.48,2.48,0,0,1-1.32-.19l-.24-.34c0-.17.09-.4.17-.7s.14-.53.17-.69l.93-3.42-.44-.17q3-7.94,3.44-10.48l.78,0Zm1.83,14.94-.41.68.15-.44A1.26,1.26,0,0,0,465.66,375.68Z"/><path class="cls-2" d="M528.77,381l0,1.64v9l0,4.3v1.22l0,1.15c-.09.13-.49.19-1.19.19H527l-7.66.1-7.28,0a58.46,58.46,0,0,1-2.66-7.11l-4.66-12.38-.88.13,0,2.49v6.61l.1,6.62v2.73c0,.73-.16,1.12-.49,1.15-1.61-.05-3.15-.07-4.61-.07h-.76l-3.69.09h-.48l-1.76.05-.07-.05c-.54-.5-.81-.87-.81-1.09v-.44l0-.49.13-9.52q0-15.67.29-23.71l.05-2q0-.21,16.82-.39a3.13,3.13,0,0,1,.44,1.08v-.08l.15.49q1.8,5.17,4.39,11.88l2.64,6.85.83-.05.09-19.9c0-.13,1.19-.19,3.57-.19l6.13.12h1.8Q528.78,369.44,528.77,381Z"/><path class="cls-2" d="M534,367.82l-.12-6.42.17.07q18.56-.32,28-.34a.28.28,0,0,1,.15.15v6.88c0,.67,0,1.21,0,1.64q-.12.39-1.44.39h-.17q-5.91,0-12.31-.2,0,.22-.06.78c0,.38-.07.65-.08.81l-.13.93c-.08.61-.13,1.69-.17,3.22l7.57-.17c1.3,0,2.25-.05,2.83-.05h.39a15.31,15.31,0,0,1,2,.08.48.48,0,0,1,.46.5l0,.2v.59l.12,6.27,0,0v0q-7.41.36-11.86.37H548v5.9l13.26-.41a2,2,0,0,1,1.39.32c0,.42,0,1,0,1.8l.17,6.64a.62.62,0,0,1-.54.71l-8.11-.07q-2.38,0-9.52.17l-4,.1c-2.83.1-4.93.14-6.3.14l-.07,0h0l-.46-.47v-.85l.14-26.1Z"/><path class="cls-2" d="M565.88,367.82l-.12-6.42.17.07q18.55-.32,28-.34a.29.29,0,0,1,.14.15v6.88c0,.67,0,1.21,0,1.64q-.12.39-1.44.39h-.17q-5.91,0-12.3-.2,0,.22-.06.78t-.09.81l-.12.93c-.08.61-.14,1.69-.17,3.22l7.57-.17c1.3,0,2.24-.05,2.83-.05h.39a15.22,15.22,0,0,1,2,.08c.31.06.47.23.47.5l0,.2v.59l.12,6.27,0,0v0q-7.42.36-11.87.37H579.9v5.9l13.25-.41a2,2,0,0,1,1.39.32c0,.42,0,1,0,1.8l.17,6.64a.62.62,0,0,1-.54.71l-8.1-.07q-2.4,0-9.52.17l-4,.1c-2.83.1-4.93.14-6.29.14l-.08,0h0l-.47-.47v-.85l.15-26.1Z"/><path class="cls-2" d="M607.53,361.13l4.57-.07q11.94,0,16.77,3.95a11,11,0,0,1,2.25,2.54,19.65,19.65,0,0,1,3.54,11.38q0,11.1-7.64,16.43a18.14,18.14,0,0,1-10.5,3.24l-.1.1h-.61l-6.49-.07q-4.43,0-11.06.22a4.4,4.4,0,0,1-.47-2.08l0-.88v-3.8l0-5.42v-8.94c0-2.05,0-3.58,0-4.59v-4l0-.56v-7c0-.13.89-.24,2.66-.33s3.19-.13,4.25-.13Zm10.35,8.45a5.93,5.93,0,0,0-3.07-1.13l-1.6-.05-1.48,0a7,7,0,0,0-.58,1l-.44.91v1.36q0,4.23.19,11.45l.15,7.06a1.09,1.09,0,0,0,1,.9,21.06,21.06,0,0,0,3.88-.34q4.8-1.71,4.81-11.69Q620.72,371.57,617.88,369.58Z"/><path class="cls-2" d="M692.27,398.31c0,.21-.46.32-1.34.32h-2.24l-1.52,0h-1.49l-2.37,0q-3.54,0-5.88-.17s-.11-.12-.17-.3l-.12-.51a17.4,17.4,0,0,0-1.15-4.86l-10.45.1c-.06.28-.28,1.1-.63,2.47s-.63,2.4-.81,3.1a5.5,5.5,0,0,1-2.32.24l-.61,0h-1.42l-6.34.14h-.74l-.68,0h-1.71a4.76,4.76,0,0,1-.36-.44q2.43-8.44,6.61-20.95l.56-1.73h0l.66-2q.32-1,1.82-5.42c1-3,1.62-4.87,1.88-5.74a7.13,7.13,0,0,1,.45-1.34h4l8.67-.12,2.34.12,1.93-.12c1,0,1.47.19,1.47.58q2.43,6.82,6.51,19.61l4.59,14.38.35,1.22A9.22,9.22,0,0,0,692.27,398.31ZM668.1,385l1,0,5.83,0c-.24-1.94-.43-3.36-.56-4.27l-.93-4.18q-1.47-6.46-1.51-6.59c0-.08-.06-.16-.09-.23a.57.57,0,0,0-.06-.15.31.31,0,0,1-.06-.13.6.6,0,0,0-.07-.14.45.45,0,0,1-.09-.1,1.38,1.38,0,0,0-.71-.52q-.66.15-3.93,14.7l-.27,1.61Z"/><path class="cls-2" d="M709.54,378.58a26.26,26.26,0,0,1,2-8.37,15.32,15.32,0,0,1,7.79-7.69,24.67,24.67,0,0,1,10-2q9.09,0,13.26,5a12.8,12.8,0,0,1,2.9,7.35l.22,2.3q-.41.39-5.25.39l-3.88-.05h-.32l-2.12,0-.59,0h-.48c-.46,0-.81-.67-1-2a4.75,4.75,0,0,0-1.08-2.64,2.37,2.37,0,0,0-1.67-.65,3.83,3.83,0,0,0-1.67.34,3.92,3.92,0,0,0-1.18.82,3.76,3.76,0,0,0-.79,1.35,11,11,0,0,0-.7,3.21c-.09,1.13-.13,2.4-.13,3.8v.59l-.09,2.46q0,6.74,3.8,6.89a2.07,2.07,0,0,0,1.37-.35,7.88,7.88,0,0,0,1.83-3.73,3.69,3.69,0,0,1,.42-.95h.93l1.12,0h4l1.2,0,2.32,0h1.42l1.44,0h1q.3,0,.42.51l-.08.8a14.4,14.4,0,0,1-1.34,5.23,13.25,13.25,0,0,1-6.53,6.38,22.79,22.79,0,0,1-9.78,2.09q-9.3,0-14-5.49T709.54,378.58Z"/><path class="cls-2" d="M747.18,379.68l.05-.53a53.42,53.42,0,0,1,.78-5.41,16.58,16.58,0,0,1,1.59-4.41,17,17,0,0,1,7.29-6.85A22.29,22.29,0,0,1,767,360.15a22,22,0,0,1,9.83,2.18,11.21,11.21,0,0,1,4.12,3.27,20,20,0,0,1,3.76,6.56,24.29,24.29,0,0,1,.9,6.94q0,8.73-3.61,13.33l-1.12,1.49a14.56,14.56,0,0,1-6.42,4.06,26.15,26.15,0,0,1-8.23,1.48q-7,0-11.45-2.93Q747.18,391.63,747.18,379.68Zm14-.19,0,.12v.07a22.93,22.93,0,0,0-.1,2.3,18.18,18.18,0,0,0,.21,2.68,15.42,15.42,0,0,0,.68,2.84,5.15,5.15,0,0,0,1.48,2.29,3.55,3.55,0,0,0,2.4.93,5.94,5.94,0,0,0,2.25-.38,5,5,0,0,0,1.54-1,5.15,5.15,0,0,0,1.08-1.59c.78-1.77,1.17-4.53,1.17-8.25s-.43-6.45-1.3-8a4.26,4.26,0,0,0-4-2.29,4.21,4.21,0,0,0-2.3.64,5.32,5.32,0,0,0-1.49,1.32,9,9,0,0,0-1,2.9,17.9,17.9,0,0,0-.52,4.1Z"/><path class="cls-2" d="M817.49,388.67a6.15,6.15,0,0,0-.17,1.46v.56a7.24,7.24,0,0,0,.17,1.86c0,2.46,0,4.35,0,5.69q-.15.63-24.1.63c-.73,0-1.94,0-3.63-.05a5.26,5.26,0,0,1-.4-2.41l0-1.59v-5.54l0-4.64v-4.59l0-7.4c0-1.36,0-2.65-.05-3.86v-.26l-.07-3.52a10,10,0,0,1,.51-4q.49,0,1.35,0h1.17l4.1-.05q7,0,7.71.88l-.19,8.52-.07,7.15,0,.29-.1,10.16,1,.56q4.43-.27,8.56-.27C816.07,388.25,817.46,388.39,817.49,388.67Z"/><path class="cls-2" d="M829.92,361.13l4.57-.07q11.94,0,16.77,3.95a10.73,10.73,0,0,1,2.24,2.54A19.65,19.65,0,0,1,857,378.93q0,11.1-7.64,16.43a18.08,18.08,0,0,1-10.49,3.24l-.1.1h-.61l-6.5-.07q-4.41,0-11.06.22a4.4,4.4,0,0,1-.46-2.08l0-.88v-3.8l0-5.42v-8.94c0-2.05,0-3.58,0-4.59v-4l0-.56v-7c0-.13.89-.24,2.66-.33s3.19-.13,4.25-.13Zm10.35,8.45a6,6,0,0,0-3.07-1.13l-1.6-.05-1.48,0a8.64,8.64,0,0,0-.59,1l-.44.91v1.36q0,4.23.2,11.45l.15,7.06a1.08,1.08,0,0,0,1,.9,21,21,0,0,0,3.88-.34Q843.11,389,843.1,379,843.1,371.57,840.27,369.58Z"/><path class="cls-2" d="M877.75,370.8l0-.49v-1.52q0-3.14.13-7.22l-.05-.05,1.32-.07q6.36-.34,8.27-.35h11.38a18,18,0,0,1,9.69,2.42,8.5,8.5,0,0,1,2.22,3.15,11.17,11.17,0,0,1,.86,4.47q0,4.82-6.45,8.18a11.06,11.06,0,0,1,5.58,3.21,7.91,7.91,0,0,1,1.94,5.41,9.36,9.36,0,0,1-5.08,8.59,18.46,18.46,0,0,1-9.45,2.2l-7.27-.1q-4.71,0-12.5.22-.69-1.44-.68-11.4T877.75,370.8Zm20.43,4.1a4.73,4.73,0,0,0,.49-2.25,3.44,3.44,0,0,0-1.83-3.44,8.7,8.7,0,0,0-3.83-.88q-2,0-2,1.47c0,1.74,0,3.52.13,5.34l0,1.3a1.11,1.11,0,0,0,1.07,1.1l1.2-.15Q897.16,377,898.18,374.9Zm-5.25,16.33q6.33,0,6.33-4.42c0-1.87-.57-3.12-1.71-3.76a11.17,11.17,0,0,0-4.71-.93h-.71l-.44,1.37c-.12,1.68-.17,3.33-.17,4.95s.17,2.55.51,2.79Z"/><path class="cls-2" d="M916.22,367.82l-.12-6.42a.51.51,0,0,1,.17.07q18.56-.32,28-.34a.29.29,0,0,1,.14.15v6.88c0,.67,0,1.21,0,1.64-.09.26-.57.39-1.45.39h-.17q-5.91,0-12.3-.2,0,.22-.06.78t-.09.81l-.12.93c-.08.61-.14,1.69-.17,3.22l7.57-.17c1.3,0,2.24-.05,2.83-.05h.39a15.22,15.22,0,0,1,2,.08c.31.06.47.23.47.5l0,.2v.59l.13,6.27,0,0v0q-7.43.36-11.86.37h-1.15v5.9L943.5,389a2,2,0,0,1,1.39.32q0,.63,0,1.8l.17,6.64a.62.62,0,0,1-.53.71l-8.11-.07q-2.4,0-9.52.17l-4,.1c-2.84.1-4.94.14-6.3.14l-.08,0h0l-.47-.47v-.85l.15-26.1Z"/><path class="cls-2" d="M948.11,367.82,948,361.4l.17.07q18.55-.32,28-.34a.28.28,0,0,1,.15.15v6.88c0,.67,0,1.21,0,1.64q-.12.39-1.44.39h-.17q-5.91,0-12.31-.2,0,.22-.06.78c0,.38-.07.65-.08.81l-.12.93c-.09.61-.14,1.69-.18,3.22l7.57-.17c1.3,0,2.25-.05,2.83-.05h.4a15.22,15.22,0,0,1,2,.08.48.48,0,0,1,.46.5l0,.2v.59l.12,6.27,0,0v0q-7.42.36-11.87.37h-1.15v5.9l13.26-.41a2,2,0,0,1,1.39.32c0,.42,0,1,0,1.8l.17,6.64a.62.62,0,0,1-.54.71l-8.1-.07c-1.6,0-4.77.06-9.53.17l-4,.1c-2.83.1-4.93.14-6.3.14l-.07,0h0l-.46-.47v-.85l.14-26.1Z"/><path class="cls-2" d="M990.86,361.32l7.84-.07c1.66,0,3.16,0,4.51.1q5.44.15,8.29,2.56a8.43,8.43,0,0,1,2.84,6.81,7.92,7.92,0,0,1-1.78,5.22,15,15,0,0,1-5.2,3.79c3.62,1.14,5.8,3.91,6.57,8.3.18,1,.32,2.06.43,3.3s.19,2.07.25,2.49l.25,1.24c.26,1.47.49,2.53.68,3.18l-.1.07q-4.14.27-7.58.27c-2.28,0-4.31,0-6.06-.12h-.15c-.51,0-1-2.4-1.61-7.2l-.12-1.05c-.07-1.79-.38-3-.94-3.62a3.83,3.83,0,0,0-2.92-.92l-.32,0h-1.29v7.42l0,.78v4.47a.41.41,0,0,1-.36.29c-1.8.07-4.32.1-7.58.1s-5.42,0-6.46,0l-.15,0,0,0a.25.25,0,0,1-.14-.07l0-2.2,0-.73.1-10.13v-1.79l0-1.83,0-6.32,0-.83-.07-5.54.1-7.79c0-.13.46-.2,1.39-.2l1.56,0h1.49l3.1,0Zm9,8a10,10,0,0,0-3.9-.63h-1.42q-.27.39-.27,4.11c0,2.48,0,4.15.12,5q7.65-.17,7.64-5.27A3.37,3.37,0,0,0,999.89,369.28Zm15.68,29v0s0,0,0,0Zm.12-.07-.12.07v-.05S1015.61,398.17,1015.69,398.17Z"/></g></g></svg>